<?xml version="1.0" encoding="UTF-8"?>
<svg clip-rule="evenodd" fill-rule="evenodd" stroke-linecap="round" stroke-linejoin="round" stroke-miterlimit="1.5" version="1.1" viewBox="0 0 1474.9 523.54" xmlns="http://www.w3.org/2000/svg"><path d="m1078 319.75c-0.033-2e-3 -0.067-3e-3 -0.1001-7e-3 0-4.7556 1.8883-9.3174 5.2522-12.679 3.3639-3.3638 7.9234-5.2535 12.681-5.2535h35.867c4.7577 0 9.3172 1.8898 12.681 5.2535 3.3639 3.3621 5.2522 7.9238 5.2522 12.679-0.033 3e-3 -0.067 5e-3 -0.1001 7e-3h0.1001v19.226h-0.018c-0.1491 7.9419-1.2364 28.008-15.209 29.423-7.5657 0.76577-11.684 1.2357-20.639 1.3212-8.9554-0.0854-13.073-0.55542-20.639-1.3212-13.973-1.4148-15.06-21.481-15.209-29.423h-0.018v-19.226z" fill="#ff2f24"/><path d="m1109.1 315.33c-0.6631 0-1.2962 0.26317-1.7656 0.73242-0.4694 0.46852-0.7383 1.106-0.7383 1.7695v11.174h-11.84c-0.6631 0-1.2962 0.2639-1.7656 0.73242-0.4694 0.46851-0.7305 1.1048-0.7305 1.7676v8.5195c0 0.66355 0.2611 1.2991 0.7305 1.7676 0.4694 0.46925 1.1025 0.73242 1.7656 0.73242h11.84v10.865c0 0.66354 0.2689 1.2991 0.7383 1.7676 0.4694 0.46925 1.1025 0.73242 1.7656 0.73242h9.3418c0.6631 0 1.2963-0.26317 1.7657-0.73242 0.4694-0.46852 0.7304-1.104 0.7304-1.7676v-10.865h11.84c0.6631 0 1.304-0.26317 1.7734-0.73242 0.4619-0.46852 0.7305-1.104 0.7305-1.7676v-8.5195c0-0.66282-0.2686-1.2991-0.7305-1.7676-0.4694-0.46852-1.1103-0.73242-1.7734-0.73242h-11.84v-11.174c0-0.66355-0.261-1.301-0.7304-1.7695-0.4694-0.46925-1.1026-0.73242-1.7657-0.73242h-9.3418z" fill="#fff"/><path d="m867.51 328.31 41.252 21.402-41.252-21.402zm66.08 0 41.252 21.402-41.252-21.402zm66.08 0 41.252 21.402-41.252-21.402zm234.31 0-41.252 21.402 41.252-21.402zm66.096 0-41.252 21.402 41.252-21.402zm66.096 0-41.252 21.402 41.252-21.402z" fill="none" stroke="#fff" stroke-width="21.63px"/><path d="m949.05 169.47c-2.268 0-4.3744 0.16232-6.3184 0.48633-1.944 0.324-3.401 0.64865-4.373 0.97265v41.957 45.686c0 2.592 0.48514 4.8587 1.6191 6.8027 1.134 1.944 2.9176 3.7276 5.1856 5.3476 3.24 2.106 7.2883 4.0499 11.986 5.6699 4.86 1.62 10.692 2.4297 17.334 2.4297 8.586 0 16.039-1.6212 22.357-4.6992 6.318-3.24 11.34-7.9377 14.742-14.094 3.564-6.156 5.3457-13.77 5.3457-22.842 0-8.91-1.6214-16.524-5.0234-22.518-3.402-6.156-7.9374-10.692-13.607-13.77-5.67-3.078-12.149-4.6992-19.115-4.6992-4.374 0-8.4244 0.64931-12.15 1.9453-1.6834 0.53563-3.2478 1.1108-4.6973 1.7188v-19.053c0-4.374-1.1342-7.2902-3.2402-8.9102-2.106-1.62-5.3469-2.4316-10.045-2.4316zm-164.11 6.1562c-5.184 0-10.206 0.32455-15.066 0.81055-4.698 0.486-8.9086 1.4579-12.473 2.7539-1.944 0.648-3.5652 1.6199-4.6992 2.7539s-1.7812 2.7534-1.7812 4.8594v56.539 22.518c0 4.374 0.97201 7.2903 2.916 9.0723 2.106 1.782 5.5072 2.5918 10.367 2.5918 2.268 0 4.5366-0.16233 6.6426-0.48633 2.106-0.162 3.7253-0.48459 4.6973-0.80859v-32.887h11.896l16.131 24.785c1.782 2.916 3.726 5.3469 5.832 7.1289 2.106 1.782 5.1824 2.5918 9.2324 2.5918 3.078 0 5.9958-0.8098 8.4258-2.5918 2.43-1.782 4.2116-4.3733 5.1836-7.6133-1.134-1.782-2.7552-4.0506-4.6992-6.6426-1.944-2.754-4.2106-5.67-6.6406-8.748-2.43-3.078-4.8612-6.3187-7.6152-9.7207-1.0166-1.3343-2.0264-2.6677-3.0332-4.002 5.5932-2.8632 10.061-6.6938 13.24-11.387 3.564-5.184 5.3457-11.016 5.3457-17.496 0-10.53-3.7256-18.793-11.016-24.787-7.29-6.156-18.307-9.2344-32.887-9.2344zm569.59 0.97266c-2.106 0-4.2125 0.16232-6.4805 0.48632-2.106 0.324-3.7254 0.64855-4.8594 0.81055v62.045 5.5078c0 4.374-0.9721 7.7768-3.0781 9.8828-2.106 2.106-5.1846 3.2402-9.5586 3.2402-1.944 0-3.7257-0.16222-5.3457-0.32422-1.62-0.324-3.4018-0.81087-5.5078-1.2969-0.648 0.81-1.2973 2.1064-1.9453 3.5644s-0.9707 3.2397-0.9707 5.3457c0 4.698 1.9439 7.9388 5.6699 9.8828s8.5858 2.916 14.256 2.916c6.642 0 12.15-1.1343 16.686-3.4023 4.698-2.43 8.2614-5.8312 10.691-10.367 2.43-4.536 3.7266-10.045 3.7266-16.363v-19.115-41.148c0-4.536-1.1343-7.6144-3.2403-9.2344-2.106-1.62-5.3449-2.4297-10.043-2.4297zm46.978 0c-2.106 0-4.3725 0.16232-6.4785 0.48632s-3.8895 0.64855-5.0235 0.81055v57.186 5.832c0 7.614 1.6215 14.418 5.0235 20.088 3.402 5.67 8.262 10.205 14.58 13.445 6.3179 3.078 13.932 4.6992 22.842 4.6992s16.524-1.6212 22.842-4.6992c6.318-3.24 11.178-7.7753 14.58-13.445 3.402-5.67 5.0215-12.474 5.0215-20.088v-10.691-41.959c0-4.536-1.1342-7.6144-3.2402-9.2344-2.106-1.62-5.345-2.4297-10.043-2.4297-2.106 0-4.2125 0.16232-6.4805 0.48632-2.106 0.324-3.8875 0.64855-5.0215 0.81055v57.51 4.8594c0 5.994-1.6214 10.53-5.0234 13.932-3.24 3.24-7.4508 4.8613-12.635 4.8613s-9.3968-1.6213-12.799-4.8613c-3.24-3.402-4.8594-7.9376-4.8594-13.932v-10.043-41.959c0-4.536-1.1342-7.6144-3.2402-9.2344-2.1059-1.62-5.3469-2.4297-10.045-2.4297zm-265.03 1.2969c-2.106 0-4.2122 0.16048-6.1562 0.64649-1.944 0.324-3.4012 0.64865-4.5352 0.97265v58.158 14.904c0 9.234 2.4292 16.038 7.4512 20.088 5.022 4.05 12.151 6.1562 21.223 6.1562 7.128 0 12.151-1.1344 15.229-3.5644s4.5351-5.3463 4.5351-9.0723c0-1.782-0.3228-3.4014-1.1328-4.8594-0.648-1.458-1.4595-2.5925-2.2695-3.5645-1.296 0.48601-2.9154 0.97299-4.8594 1.459-1.782 0.324-3.5636 0.48437-5.1836 0.48437-3.564 0-6.3177-0.64746-8.2617-2.1055s-2.916-3.5646-2.916-6.6426v-17.334-14.742h16.848c2.43 0 4.3741-0.80958 5.8321-2.2676s2.2675-3.887 2.2675-7.127c0-1.944-0.3245-3.7257-0.8105-5.3457-0.486-1.62-1.1332-2.9166-1.6192-3.7266h-22.518v-11.178c0-4.374-0.9722-7.2902-3.0782-8.9102s-5.3469-2.4297-10.045-2.4297zm-351.7 17.656c6.48 0 11.34 1.2966 14.418 3.7266 3.078 2.43 4.6992 5.8332 4.6992 10.531 0 4.698-1.6214 8.4235-5.0234 10.854-3.24 2.43-7.613 3.5644-12.959 3.5644h-10.531v-27.865c1.458-0.324 2.917-0.48644 4.375-0.64844s3.2395-0.16211 5.0215-0.16211zm435.94 0.48633c-10.368 0-18.629 2.2687-24.785 6.8047-5.994 4.374-9.0723 10.368-9.0723 17.982 0 6.642 2.1064 11.987 6.3184 15.875 4.374 3.726 10.854 6.6418 19.439 8.4238l6.8047 1.6211c3.24 0.486 5.5069 1.4578 6.9649 2.5918s2.1054 2.5912 2.1054 4.5352c0 4.536-3.8881 6.8047-11.826 6.8047-5.1839 0-9.8817-0.64747-13.932-2.1055s-7.4513-3.0793-10.529-4.8613c-1.458 0.972-2.7545 2.2688-3.7265 4.0508-0.972 1.62-1.4571 3.564-1.4571 5.832 0 5.022 2.916 8.91 8.586 11.502s12.959 3.8887 21.869 3.8887c11.34 0 19.926-2.2686 25.92-6.6426 5.994-4.536 8.9102-10.693 8.9102-18.631 0-6.48-2.1064-11.663-6.3184-15.713-4.212-4.05-11.176-7.2905-20.734-9.3965l-6.4805-1.6191c-3.078-0.648-5.3467-1.4596-6.6426-2.4316-1.134-1.134-1.7812-2.2666-1.7812-3.7246 0-2.106 1.1343-3.7272 3.2402-4.6992 2.106-1.134 5.1823-1.6191 9.0703-1.6191 2.43 0 5.1855 0.32455 7.9395 0.81055 2.916 0.486 5.5075 1.2955 7.9375 2.1055s4.3738 1.6197 5.5078 2.4297c1.458-1.134 2.5923-2.4308 3.4023-4.0508s1.2949-3.5639 1.2949-5.6699c0-3.078-1.2946-5.6694-3.7246-7.7754-2.43-2.106-5.833-3.7253-10.207-4.6973-4.212-1.134-8.9097-1.6211-14.094-1.6211zm-338.9 0.16211c-8.1 0-15.229 1.7816-21.547 5.1836-6.156 3.402-11.016 8.1018-14.418 14.258-3.402 5.994-5.1836 13.283-5.1836 21.869 0 8.586 1.6195 15.875 5.0215 22.193 3.402 6.156 8.262 10.854 14.418 14.256 6.318 3.24 13.447 4.8613 21.709 4.8613s15.551-1.6214 21.707-5.0234c6.156-3.402 10.854-8.0998 14.256-14.256 3.402-6.318 5.1836-13.607 5.1836-22.031 0-8.262-1.7816-15.553-5.1836-21.709-3.402-6.318-8.262-11.016-14.418-14.418-6.156-3.402-13.283-5.1836-21.545-5.1836zm187.6 0c-8.1 0-15.229 1.7816-21.547 5.1836-6.156 3.402-11.016 8.1018-14.418 14.258-3.402 5.994-5.1836 13.283-5.1836 21.869 0 8.586 1.6195 15.875 5.0215 22.193 3.402 6.156 8.2619 10.854 14.418 14.256 6.318 3.24 13.447 4.8613 21.709 4.8613s15.551-1.6214 21.707-5.0234c6.156-3.402 10.854-8.0998 14.256-14.256 3.402-6.318 5.1836-13.607 5.1836-22.031 0-8.262-1.7816-15.553-5.1836-21.709-3.402-6.318-8.262-11.016-14.418-14.418-6.156-3.402-13.283-5.1836-21.545-5.1836zm-187.6 18.955c5.184 0 9.2324 1.9441 12.148 5.9941 2.916 3.888 4.375 9.3953 4.375 16.361 0 7.128-1.459 12.635-4.375 16.523-2.916 3.888-6.9644 5.832-12.148 5.832s-9.2344-1.9439-12.15-5.6699c-2.916-3.888-4.375-9.3955-4.375-16.686 0-7.128 1.459-12.635 4.375-16.523 3.078-3.888 7.1284-5.832 12.15-5.832zm92.986 0c5.346 0 9.5587 1.7817 12.637 5.3457 3.24 3.402 4.8594 9.0716 4.8594 16.686 0 7.614-1.6195 13.284-5.0215 17.01-3.24 3.726-7.6131 5.6699-13.121 5.6699-2.592 0-4.8608-0.3227-6.9668-0.9707s-3.7255-1.2974-5.0215-2.1074v-37.85c1.0509-0.64375 2.1718-1.2608 3.4023-1.8398 2.754-1.296 5.8304-1.9434 9.2324-1.9434zm94.609 0c5.184 0 9.2325 1.9441 12.148 5.9941 2.916 3.888 4.375 9.3953 4.375 16.361 0 7.128-1.459 12.635-4.375 16.523-2.916 3.888-6.9645 5.832-12.148 5.832s-9.2344-1.9439-12.15-5.6699c-2.9159-3.888-4.375-9.3955-4.375-16.686 0-7.128 1.4591-12.635 4.375-16.523 3.078-3.888 7.1284-5.832 12.15-5.832zm203.15 10.043c-2.754 0-4.8605 0.80969-6.4805 2.4297-1.62 1.458-2.4297 4.0511-2.4297 7.4531 0 1.944 0.3246 3.7258 0.8106 5.5078 0.486 1.62 1.1332 2.9168 1.7812 4.0508h35.641c2.592 0 4.6983-0.81164 6.3183-2.4316 1.782-1.62 2.5918-4.2113 2.5918-7.6133 0-1.782-0.3246-3.5637-0.9726-5.3457-0.486-1.782-1.1332-3.0788-1.6192-4.0508h-35.641z" fill="#fff"/><path d="m117.43 0.0039062c-56.521 0.56628-68.54 60.288-68.57 61.859-0.12468 7.4118 2.2071 47.125 30.045 54.584 26.049 6.9799 44.302-4.1839 49.713-25.768 5.411-21.584-2.849-37.99-32.496-38.488-6.4309 0.52156 3.4009-17.279 31.508-6.4473 23.434 9.0301 20.591 50.904-9.3125 107.9l33.73 9.0371c5.4558-10.652 12.482-20.535 21.104-29.156 7.656-7.6562 16.312-14.058 25.604-19.238 4.352-42.955-1.643-96.462-54.281-110.57-9.9855-2.6756-18.969-3.8016-27.043-3.7207zm449.2 36.102-49.973 1.5508c-4.474 0.13888-7.9924 3.8795-7.8535 8.3535l0.31054 10.006-41.986 1.3027-0.41211-13.318c-0.13889-4.474-3.8832-7.9884-8.3535-7.8496l-49.973 1.5508c-4.474 0.13888-7.9943 3.8795-7.8555 8.3535l0.41406 13.318-42.158 1.3086-0.34376-11.041c-0.13889-4.474-3.8832-7.9884-8.3535-7.8496l-49.973 1.5508c-4.474 0.13888-7.9924 3.8796-7.8535 8.3535l0.34375 11.039-28.662 0.89062c-11.733 0.36422-20.964 10.173-20.6 21.904l0.45117 14.559c3.789-0.37534 7.6103-0.56641 11.451-0.56641h178.49c30.796 0 60.328 12.232 82.104 34.008 2.2929 2.293 4.4323 4.7065 6.5098 7.1641l83.373-2.5879c11.733-0.36422 20.942-10.188 20.578-21.904l-1.3203-42.52c-0.36419-11.732-10.163-20.948-21.896-20.584l-27.797 0.86328-0.31055-10.006c-0.13889-4.474-3.8832-7.9884-8.3535-7.8496zm-471.47 28.795 12.611 4.6797-4.9883 12.5 12.615 4.6875-4.9902 12.49-12.604-4.6836-4.9844 12.488-12.609-4.6797 4.9863-12.5-12.613-4.6875 4.9902-12.492 12.604 4.6836 4.9824-12.486zm7.0117 93.687c-0.99479-0.0645-1.9959 0.16283-2.8711 0.66797-1.1669 0.67349-2.0224 1.7827-2.3711 3.084-0.28664 1.0698-0.58559 2.1872-0.85938 3.209-0.56998 2.1272 0.68623 4.3124 2.8223 4.8848 8.5992 2.3042 24.529 6.5713 45.191 12.107 1.1816-3.9776 2.5273-7.8973 4.125-11.721-20.382-5.4612-35.559-9.527-45.051-12.07-0.32562-0.08725-0.65473-0.14061-0.98633-0.16211zm-21.15 16.33c-2.3975-0.14369-4.6449 1.4108-5.291 3.8223l-0.625 2.3301c-0.68761 2.5662 0.82745 5.2012 3.4004 5.8906 11.283 3.0234 33.34 8.9339 61.395 16.451 0.43847-4.147 1.0437-8.2614 1.918-12.312l-59.766-16.014c-0.34439-0.09228-0.68876-0.14744-1.0312-0.16797zm576.45 1.5781-113.23 3.5156c3.3471 10.402 5.2387 21.304 5.5469 32.4 0.12895 1.0696 0.21485 2.1516 0.21485 3.2559v49.254l110.11-3.418c11.713-0.36361 20.942-10.186 20.578-21.902l-1.3203-42.52c-0.36418-11.732-10.183-20.95-21.896-20.586zm-566.94 21.961c-0.77103-0.04975-1.5471 0.12889-2.2246 0.52149-0.90339 0.52347-1.5633 1.3844-1.834 2.3945-0.36771 1.3723-0.78347 2.9222-1.1523 4.2988-0.27432 1.0238-0.13696 2.1119 0.39844 3.0312 0.53539 0.91939 1.3992 1.5868 2.4238 1.8613 9.701 2.5994 28.156 7.5443 50.885 13.635v-8.5312c0-1.0573 0.07697-2.0954 0.19532-3.1211 0.00982-0.36904 0.06871-0.73102 0.08203-1.0996-21.773-5.8342-38.912-10.426-48.008-12.863-0.25181-0.06747-0.50862-0.11036-0.76562-0.12695zm-8.5469 19.666s-63.943 192.24-81.758 245.8c-0.61646 1.8144 0.05757 3.8179 1.623 4.9219 1.5655 1.104 3.6646 1.0461 5.1738-0.14063 13.34-10.469 33.678-26.422 33.678-26.422s4.5949 45.577 7.4434 73.777c0.34604 3.4321 2.7813 6.2952 6.1133 7.1973 3.3343 0.89342 6.8729-0.37062 8.8887-3.1699 16.532-22.868 43.184-59.742 43.184-59.742s9.0908 22.337 15.449 37.924c0.79359 1.9702 2.7968 3.1834 4.9141 2.9922 2.1196-0.19985 3.8583-1.7609 4.2871-3.8476 4.5571-22.21 11.009-53.636 20.094-97.902-8.9899-30.645-11.175-63.664-11.734-84.285-0.18371-1.2717-0.3125-2.5621-0.3125-3.8848v-77.936l-57.043-15.285zm562.97 83.85-94.961 2.9473v6.4238c0 1.3858-0.13658 2.7369-0.33789 4.0664-0.50895 18.564-2.3138 47.101-9.1856 74.896l107.12-3.3262c11.727-0.36404 20.938-10.186 20.574-21.902l-1.3203-42.521c-0.36418-11.732-10.165-20.948-21.893-20.584zm-65.746 127.12-53.678 1.666c-15.305 28.802-39.424 50.068-75.613 53.732-38.552 3.9037-59.53 6.2763-105.16 6.7129-0.17186 2e-3 -0.34377 2e-3 -0.51563 0-38.374-0.36718-59.825-2.1724-88.443-5.0371l0.52149 16.773c0.36369 11.716 10.194 20.948 21.922 20.584l303.61-9.4238c11.728-0.36406 20.948-10.188 20.584-21.904l-1.3184-42.52c-0.36418-11.732-10.177-20.948-21.904-20.584z" fill="#2b5415"/><path d="m360.98 66.68c-2.9883-0.021586-5.871 1.6323-7.2754 4.4922-1.6054 3.2692-0.78017 7.1013 1.7715 9.4492-3.0617 9.983-5.0376 22.007-6.2285 31.213-4.1356-9.7017-11.092-19.148-18.834-26.959 1.2767-3.1537 0.44338-6.9018-2.3125-9.1914-3.409-2.833-8.4785-2.366-11.311 1.043-2.833 3.41-2.3641 8.4775 1.0449 11.311 2.6168 2.1741 6.2092 2.4032 9.0195 0.85156 10.73 10.956 19.648 25.46 20.848 37.508h-92.449c-23.667 0-46.365 9.4011-63.1 26.137-16.735 16.736-26.139 39.434-26.139 63.102v0.0039c119.33 6.8146 238.32 6.8454 356.97 0v-0.0039c0-23.668-9.402-46.366-26.137-63.102-16.735-16.736-39.435-26.137-63.102-26.137h-79.818c2.2438-2.5552 6.8667-7.5793 12.102-11.824 2.3427 1.983 5.7234 2.5287 8.668 1.1172 3.997-1.917 5.6865-6.7178 3.7695-10.715-1.916-3.997-6.7178-5.6855-10.715-3.7695-3.3325 1.5983-5.0596 5.2015-4.4316 8.6719-3.5883 2.8326-6.8701 5.987-9.4512 8.6621 1.0116-9.082 3.0536-24.079 6.5586-35.809 3.1348 0.18756 6.2245-1.4849 7.6953-4.4785 1.954-3.979 0.31104-8.796-3.668-10.75-1.1191-0.54956-2.3053-0.81382-3.4746-0.82226zm-129.67 162.62c-4.7314 0.00502-9.3425 1.6429-13.031 4.6719-4.2157 3.4617-6.8829 8.4564-7.416 13.885-2.3e-4 2e-3 2.4e-4 0.00581 0 0.00781-2.165 22.047 13.952 41.673 35.998 43.838 10.824 1.0629 22.644 2.2247 33.82 3.3223 25.986 2.5518 49.12-16.446 51.672-42.432 2.4e-4 -2e-3 -2.4e-4 -0.00386 0-0.00586 0.34731-3.5367-0.72446-7.0684-2.9805-9.8144-2.2547-2.7471-5.5082-4.4847-9.0449-4.832-21.06-2.0681-62.168-6.106-86.984-8.543-0.67853-0.06663-1.3573-0.09837-2.0332-0.09766zm225.1 0c-0.67591-7.1e-4 -1.3547 0.03103-2.0332 0.09766-24.816 2.437-65.925 6.4748-86.984 8.543-3.5367 0.34731-6.7922 2.0849-9.0469 4.832-2.256 2.746-3.3278 6.2777-2.9805 9.8144 2.4e-4 2e-3 0.00171 0.00386 0.00195 0.00586 2.5518 25.986 25.684 44.983 51.67 42.432 11.177-1.0976 22.996-2.2593 33.82-3.3223 22.047-2.165 38.163-21.791 35.998-43.838-2.4e-4 -2e-3 2.3e-4 -0.00581 0-0.00781-0.53308-5.4283-3.2004-10.423-7.416-13.885-3.6887-3.029-8.2979-4.6669-13.029-4.6719zm-185.06 20.857a19.041 15.33 0 0 1 19.041 15.33 19.041 15.33 0 0 1-19.041 15.33 19.041 15.33 0 0 1-19.041-15.33 19.041 15.33 0 0 1 19.041-15.33zm145.01 0a19.041 15.33 0 0 1 19.041 15.33 19.041 15.33 0 0 1-19.041 15.33 19.041 15.33 0 0 1-19.041-15.33 19.041 15.33 0 0 1 19.041-15.33zm-250.35 54.721c0.4088 33.588 2.0527 145.41 75.773 152.88 37.655 3.8129 58.143 6.1496 102.71 6.5762 44.568-0.42658 65.056-2.7633 102.71-6.5762 73.721-7.4649 75.365-119.29 75.773-152.88-59.67 4.2992-119.17 6.4312-178.48 6.4316-59.319-4.5e-4 -118.81-2.1324-178.48-6.4316zm110.88 38.344c0.40354 0.00401 0.80818 0.02802 1.2129 0.07227 28.297 3.0916 98.465 10.757 131.31 14.346 4.6368 0.5066 8.8813 2.8364 11.803 6.4726 2.9196 3.6378 4.2761 8.2833 3.7695 12.92-2.7e-4 3e-3 3.7e-4 0.00872 0 0.01172-1.9174 17.549-10.729 33.619-24.494 44.672-13.766 11.055-31.357 16.187-48.906 14.27-7.7103-0.84239-15.603-1.7049-23.381-2.5547-18.948-2.0702-36.3-11.584-48.236-26.447-11.935-14.862-17.477-33.859-15.406-52.809 2.7e-4 -3e-3 0.00158-0.00676 0.00195-0.00976 0.35356-3.2361 1.9777-6.2012 4.5156-8.2402 2.2221-1.784 4.9838-2.7312 7.8086-2.7031zm25.699 47.586c-2.2125 0.06946-4.374 0.7892-6.2031 2.0938-2.4387 1.7388-4.0874 4.376-4.582 7.3301-3.1e-4 2e-3 3.8e-4 0.00385 0 0.00585-0.88561 5.2894 2.4162 16.754 16.604 23.283 16.667 7.6702 35.855 9.0528 48.322 8.0898 11.183-0.86404 22.175-5.7817 24.082-17.174 3.1e-4 -2e-3 -3.7e-4 -0.00386 0-0.00586 0.96681-5.7744-2.9306-11.238-8.7051-12.205-16.881-2.8264-49.991-8.3698-67.299-11.268-0.73848-0.12365-1.4812-0.17355-2.2188-0.15039z" fill="#fff"/></svg>
