<?xml version="1.0" encoding="utf-8"?>
<!-- Generator: Adobe Illustrator 15.1.0, SVG Export Plug-In . SVG Version: 6.00 Build 0)  -->
<!DOCTYPE svg PUBLIC "-//W3C//DTD SVG 1.1//EN" "http://www.w3.org/Graphics/SVG/1.1/DTD/svg11.dtd">
<svg version="1.1" id="Calque_1" xmlns="http://www.w3.org/2000/svg" xmlns:xlink="http://www.w3.org/1999/xlink" x="0px" y="0px"
	 width="767.285px" height="112.721px" viewBox="0 0 767.285 112.721" enable-background="new 0 0 767.285 112.721"
	 xml:space="preserve">
<g>
	<defs>
		<rect id="SVGID_1_" width="767.285" height="112.721"/>
	</defs>
	<clipPath id="SVGID_2_">
		<use xlink:href="#SVGID_1_"  overflow="visible"/>
	</clipPath>
	<g clip-path="url(#SVGID_2_)">
		<path d="M724.644,36.345c0,3.922-1.382,7.289-4.169,10.063c-2.771,2.791-6.141,4.175-10.061,4.175
			c-3.938,0-7.287-1.384-10.075-4.175c-2.791-2.774-4.177-6.141-4.177-10.063c0-3.931,1.386-7.293,4.177-10.074
			c2.788-2.784,6.138-4.179,10.075-4.179c3.92,0,7.289,1.395,10.061,4.179C723.262,29.052,724.644,32.414,724.644,36.345
			 M722.758,36.345c0-3.402-1.221-6.329-3.616-8.779c-2.425-2.432-5.337-3.654-8.728-3.654c-3.424,0-6.313,1.222-8.737,3.654
			c-2.413,2.45-3.62,5.377-3.62,8.779c0,3.405,1.207,6.331,3.62,8.766c2.425,2.442,5.313,3.668,8.737,3.668
			c3.391,0,6.303-1.226,8.728-3.668C721.537,42.676,722.758,39.75,722.758,36.345 M719.59,43.588h-3.661l-5.453-5.852h-2.694v5.852
			h-2.711V28.505h5.135c1.026,0,1.875,0.039,2.565,0.139c0.667,0.09,1.316,0.298,1.963,0.633c0.698,0.384,1.204,0.832,1.523,1.363
			c0.332,0.537,0.48,1.201,0.48,2.005c0,1.055-0.308,1.952-0.931,2.661c-0.607,0.697-1.473,1.266-2.56,1.685L719.59,43.588z
			 M713.784,32.812c0-0.389-0.069-0.736-0.218-1.045c-0.161-0.315-0.433-0.565-0.792-0.758c-0.335-0.191-0.707-0.312-1.083-0.369
			c-0.379-0.051-0.876-0.071-1.438-0.071h-2.473v5.086h2.096c0.688,0,1.265-0.045,1.761-0.16c0.49-0.1,0.911-0.277,1.23-0.538
			c0.339-0.27,0.569-0.574,0.719-0.897C713.723,33.729,713.784,33.32,713.784,32.812"/>
		<path d="M175.468,22.818l-17.932,66.906l-13.797,0.747l0.306-1.15c2.183-0.55,4.21-1.644,6.088-3.295
			c1.787-1.617,3.184-3.491,4.183-5.645c0.985-2.116,2.181-5.791,3.587-11.036l7.837-29.242c1.657-6.209,1.988-10.437,0.982-12.674
			c-0.958-2.251-2.614-3.643-4.969-4.201l0.307-1.142C164.604,22.4,169.074,22.66,175.468,22.818 M222.691,22.818l-17.934,66.906
			c-1.875,0.047-6.601,0.284-14.193,0.747l0.32-1.15c2.715-0.55,5.224-2.004,7.51-4.378c2.286-2.367,4.33-6.927,6.145-13.684
			l3.579-13.368h-32.114l-4.128,15.391c-1.588,5.96-1.827,9.971-0.691,12.044c1.176,2.062,2.926,3.4,5.219,3.995l-0.311,1.15
			c-5.146-0.418-9.752-0.657-13.841-0.747l17.929-66.906c3.721,0,8.469-0.25,14.246-0.732l-0.311,1.142
			c-3.6,0.937-6.371,2.699-8.339,5.277c-1.95,2.591-3.785,7.049-5.493,13.407l-2.841,10.607h32.109l3.264-12.132
			c1.406-5.291,1.799-9.291,1.127-12.003c-0.772-2.673-2.553-4.394-5.352-5.156l0.307-1.142
			C213.337,22.568,217.932,22.818,222.691,22.818 M209.477,89.724l17.921-66.906c4.577,0,9.251-0.25,14.003-0.732l-0.301,1.142
			c-5.793,1.525-9.954,6.657-12.507,15.378l-1.802,6.034l-7.679,28.641c-2.537,9.472-1.107,14.813,4.278,16.039l-0.311,1.15
			C215.161,89.985,210.624,89.724,209.477,89.724"/>
		<path d="M248.74,22.086l13.961,0.732l-11.808,44.038c-1.753,6.562-2.534,11.147-2.343,13.765c0.15,2.713,1.386,5.319,3.681,7.814
			c-2.553-0.422-4.674-1.422-6.372-2.989c-1.716-1.521-2.633-3.364-2.775-5.514c-0.129-2.075,0.449-5.521,1.745-10.338l8.12-30.309
			c1.383-5.165,1.705-8.978,0.962-11.419c-0.731-2.455-2.565-3.995-5.478-4.638L248.74,22.086z M315.076,22.818L297.15,89.724
			h-5.974c0.799-1.396,1.583-3.454,2.355-6.187c-8.258,4.623-16.249,6.934-23.949,6.934c-4.524,0-8.217-1.001-11.069-2.987
			c-2.852-1.992-4.449-4.556-4.796-7.677c-0.367-3.167,0.194-7.637,1.746-13.39l11.679-43.599c4.448,0,9.413-0.25,14.94-0.732
			l-0.32,1.142c-2.423,0.388-4.549,1.301-6.382,2.737c-1.928,1.516-3.354,3.212-4.279,5.07c-1.031,1.936-2.097,4.968-3.183,9.068
			l-0.429,1.329l-6.483,24.221c-1.442,5.381-2.081,9.267-1.928,11.674c0.093,2.489,1.274,4.572,3.544,6.21
			c2.306,1.66,5.497,2.483,9.558,2.483c6.521,0,14.047-2.396,22.615-7.173l9.923-37.027c1.276-4.784,1.975-8.27,2.108-10.473
			c0.129-2.071-0.31-3.82-1.329-5.257c-0.957-1.316-2.501-2.259-4.63-2.862l0.312-1.142c0.249,0,0.836,0.013,1.764,0.054
			c0.922,0.05,1.887,0.131,2.914,0.26C309.267,22.604,312.349,22.739,315.076,22.818 M305.335,89.724h-3.619l17.933-66.906
			c3.192-0.061,5.623-0.147,7.3-0.25l7.313-0.482l-0.312,1.142c-2.262,0.388-4.384,1.376-6.371,2.982
			c-1.915,1.565-3.414,3.519-4.497,5.843c-1.001,2.153-2.322,6.275-3.946,12.369l-7.487,27.902
			c-2.811,10.489-1.276,16.152,4.591,16.996l-0.301,1.15C310.486,89.985,306.943,89.724,305.335,89.724"/>
		<path d="M356.663,22.818l12.439,61.616l-4.541,6.037l-11.279-55.943L341.48,72.387c-1.108,3.803-1.575,5.361-1.385,4.697
			c-1.984,7.396-0.224,11.473,5.275,12.236l-0.306,1.15c-0.04,0-0.619-0.051-1.725-0.174c-4.631-0.38-7.713-0.573-9.235-0.573
			c-2.029,0-5.746,0.261-11.163,0.747l0.318-1.15c5.721-1.396,10.125-6.893,13.154-16.494l13.446-43.313
			c-1.645-3.129-4.614-5.222-8.897-6.285l0.295-1.142c3.326,0.393,6.917,0.603,10.795,0.647L356.663,22.818z M376.229,67.062
			l32.186-44.244h4.885l-14.928,66.906h-2.492c-1.774,0-4.142,0.142-7.107,0.419l-4.253,0.328l0.294-1.15
			c5.454-1.396,9.207-5.943,11.271-13.637c-0.04,0.121,0.303-1.294,1.01-4.246l8.255-36.97l-32.223,44.448l-11.26-56.097h5.398
			L376.229,67.062z M403.054,89.724l14.892-66.906h2.157c3.094,0,7.489-0.25,13.226-0.732l-0.311,1.142
			c-3.063,0.519-5.664,1.864-7.829,4.06c-2.234,2.202-3.77,4.873-4.605,7.993l-1.701,6.785l-6.743,30.375
			c-1.231,5.549-1.462,9.62-0.674,12.24c0.768,2.667,2.683,4.212,5.74,4.639l-0.303,1.15
			C410.766,89.985,406.147,89.724,403.054,89.724"/>
		<path d="M479.65,74.375l-2.51-11.787h-23.939l-9.183,11.787l-0.537,0.814c-0.053,0.046-0.542,0.652-1.446,1.846
			c-1.37,1.77-2.308,3.586-2.793,5.438c-0.859,3.213,0.308,5.496,3.499,6.848l-0.312,1.15c-0.727,0-1.941-0.102-3.66-0.308
			c-2.423-0.288-4.617-0.439-6.625-0.439c-1.81,0-4.092,0.142-6.835,0.419c-1.875,0.216-3.104,0.328-3.706,0.328l0.312-1.15
			c5.297-2.374,10.832-7.259,16.625-14.661l32.058-40.959c-0.728-3.258-2.274-5.77-4.611-7.55c-2.342-1.776-5.376-2.743-9.093-2.922
			l0.307-1.142h2.227c1.991,0,4.678,0.134,8.079,0.403c3.576,0.219,5.91,0.329,7.03,0.329l14.14,66.906
			c-4.137,0.09-9.131,0.329-14.996,0.747l0.311-1.15c3.35-0.55,5.434-2.282,6.197-5.201C480.777,81.969,480.6,78.714,479.65,74.375
			 M456.962,57.8h19.182L472.1,38.517L456.962,57.8z M493.754,89.724l-14.141-66.906h6.211c0.258,2.205,0.698,4.997,1.324,8.338
			c0.73,3.6,1.119,5.735,1.146,6.414c0.113,0.378,0.183,0.823,0.215,1.326l6.638,30.886c2.335,10.741,6.137,17.244,11.413,19.538
			l-0.299,1.15C500.626,89.985,496.456,89.724,493.754,89.724"/>
		<path d="M544.07,22.818l-17.929,66.907h-2.739c-1.055,0-2.771,0.14-5.127,0.418c-2.003,0.216-4.326,0.328-6.949,0.328l0.32-1.15
			c2.78-0.304,5.377-1.629,7.789-4.001c2.412-2.362,4.529-6.934,6.342-13.702l8.74-32.593c2.46-9.219,0.746-14.478-5.168-15.796
			l0.308-1.142C532.303,22.371,537.099,22.611,544.07,22.818 M532.609,89.725h-1.846l17.933-66.907c2.533,0,5.265-0.084,8.197-0.249
			c3.382-0.321,6.116-0.482,8.181-0.482c5.797,0,9.632,1.75,11.519,5.26c1.894,3.521,2.165,7.871,0.771,13.036
			c-2.36,8.777-7.555,14.39-15.635,16.854c3.556,0.507,6.354,1.612,8.399,3.302c2.174,1.813,5.247,5.45,9.206,10.899
			c6.004,8.37,11.619,12.547,16.823,12.547c1.07,0,2.246-0.36,3.542-1.072l-0.072,1.148c-2.271,2.188-4.925,3.279-7.928,3.279
			c-3.201,0-6.253-1.196-9.112-3.604c-2.69-2.284-6.436-6.747-11.203-13.434c-5.695-8.109-12.257-12.163-19.706-12.163
			c4.229,1.433,9.167,6.262,14.81,14.506c4.021,5.744,7.341,9.93,9.982,12.556c2.683,2.614,5.567,3.92,8.667,3.92l-0.146,0.604
			c-1.588,0.498-3.074,0.746-4.46,0.746c-4.121,0-7.396-1.036-9.842-3.121c-1.309-1.146-2.885-2.88-4.73-5.226
			c-1.85-2.353-4.009-5.38-6.487-9.098c-3.612-5.414-6.408-9.087-8.331-11.033c-2.084-1.985-4.258-3.37-6.544-4.188l-4.023,15.028
			c-2.699,10.096-1.132,15.59,4.722,16.487l-0.311,1.15C540.044,89.985,535.91,89.725,532.609,89.725 M549.295,40.254l-3.688,13.786
			c2.323,0.633,4.948,0.959,7.857,0.959c9.506,0,15.599-4.962,18.245-14.875c2.488-9.276-0.97-13.913-10.399-13.913
			c-3.05,0-5.583,0.609-7.595,1.839C552.507,29.746,551.02,33.812,549.295,40.254 M574.347,53.985
			c3.942-4.367,6.601-9.175,8.011-14.425c1.269-4.789,0.975-9.591-0.9-14.416c6.451,3.086,8.785,7.959,7.013,14.612
			C586.664,46.487,581.961,51.23,574.347,53.985"/>
		<path d="M633.16,22.818l-17.93,66.906c-3.014,0-7.801,0.261-14.375,0.747l0.291-1.15c3.503-0.886,6.323-2.783,8.461-5.707
			c2.051-2.795,4.257-8.582,6.629-17.39l7.021-26.209c1.438-5.377,1.822-9.291,1.175-11.749c-0.665-2.404-2.521-4.08-5.563-5.052
			l0.3-1.127C624.574,22.489,629.24,22.733,633.16,22.818 M623.649,89.724h-3.891l17.929-66.906c5.875-0.11,9.995-0.25,12.367-0.418
			c3.563-0.21,5.995-0.314,7.308-0.314c6.339,0,11.345,1.442,15.045,4.343c3.641,2.952,5.942,6.832,6.903,11.61
			c0.954,4.7,0.454,10.655-1.489,17.897c-2.962,11-7.87,19.502-14.774,25.505c-6.933,6.02-14.928,9.029-24.013,9.029
			c-4.227,0-8.929-0.218-14.142-0.657C624.696,89.749,624.28,89.724,623.649,89.724 M642.414,28.712
			c-1.183,1.901-3.308,8.567-6.373,19.982l-4.146,15.483c-2.485,9.276-3.681,16.047-3.612,20.323
			c2.981,1.006,6.564,1.52,10.751,1.52c7.801,0,14.616-2.481,20.409-7.431c5.854-4.997,10.079-12.327,12.66-22.017
			c2.559-9.478,2.287-16.839-0.783-22.084c-3.069-5.247-8.96-7.874-17.654-7.874C649.158,26.614,645.396,27.312,642.414,28.712
			 M664.246,84.75c8.477-5.374,14.504-14.682,18.051-27.917c3.463-12.955,3.039-22.094-1.316-27.421
			c3.991,3.166,6.605,7.042,7.841,11.605c1.236,4.574,1.079,9.774-0.488,15.609C685.061,68.815,677.033,78.184,664.246,84.75"/>
		<path fill="#C10A27" d="M101.153,27.937H44.469v56.684h56.684V27.937z"/>
		<rect x="66.486" y="34.731" fill="#FFFFFF" width="12.638" height="43.093"/>
		<rect x="51.262" y="49.587" fill="#FFFFFF" width="43.102" height="12.644"/>
	</g>
</g>
</svg>
