<?xml version="1.0" encoding="UTF-8"?>
<svg width="203.08mm" height="88.688mm" version="1.1" viewBox="0 0 203.08 88.688" xmlns="http://www.w3.org/2000/svg">
<path transform="scale(.26458)" d="m600.42 7.5586c-8.8394 0-16.622 1.3214-23.348 3.9629-6.7252 2.6415-12.371 6.3373-16.938 11.09-4.5629 4.7536-7.9773 10.47-10.234 17.143-2.257 6.674-3.2407 14.048-2.9531 22.111 0 8.2579 1.0596 15.774 3.1738 22.543 2.111 6.7731 5.3786 12.584 9.7988 17.428 4.4203 4.8526 9.9701 8.5987 16.648 11.24 6.6773 2.6372 14.579 3.959 23.709 3.959 6.4355 0 12.612-0.79401 18.521-2.3789 5.9105-1.5795 11.098-4.0592 15.566-7.4219 4.4682-3.3626 8.0226-7.6351 10.664-12.822 2.6426-5.1903 3.9668-11.383 3.9668-18.592h-38.629c-0.28864 5.496-1.2754 9.2282-2.9551 11.205-1.684 1.9747-3.8672 2.9609-6.5566 2.9609-2.5946 0-4.641-0.69436-6.1289-2.0918-1.4901-1.39-2.6157-3.3137-3.3848-5.7656-0.76902-2.4509-1.2517-5.3853-1.4414-8.7969-0.19502-3.4158-0.28906-7.091-0.28906-11.035 0-4.1348 0.09404-7.9066 0.28906-11.32 0.18958-3.4148 0.69584-6.345 1.5117-8.7969 0.81589-2.4519 1.9953-4.3284 3.5312-5.6289 1.5358-1.2952 3.6511-1.9453 6.3438-1.9453 1.2483 0 2.4491 0.19362 3.6016 0.57812 1.1525 0.38451 2.1613 1.0844 3.0293 2.0898 0.86162 1.0098 1.5837 2.4263 2.1621 4.252 0.57411 1.8256 0.95619 4.2251 1.1524 7.2031h37.764c0-7.589-1.3242-14.02-3.9668-19.297-2.6415-5.2745-6.1726-9.5239-10.592-12.736-4.4181-3.2124-9.5616-5.5395-15.422-6.9785-5.8625-1.4379-12.061-2.1582-18.596-2.1582zm-544.43 2.6934v68.73c0 3.5692-0.48067 6.2998-1.4414 8.1797-0.96074 1.8853-2.9301 2.8262-5.9082 2.8262-2.0205 0-3.5556-0.71799-4.6133-2.1602-1.0577-1.4347-1.5859-3.3535-1.5859-5.75v-2.1582h-34.881v5.0332c0 5.2766 1.1297 9.9276 3.3867 13.957 2.2581 4.0273 5.3325 7.3832 9.2266 10.068 3.8909 2.6852 8.4794 4.6975 13.766 6.0449 5.283 1.3378 10.952 2.0117 17.006 2.0117 7.0149 0 13.356-0.74661 19.025-2.2324 5.6675-1.4933 10.523-3.7251 14.559-6.7031 4.0368-2.9781 7.1581-6.7251 9.3672-11.24 2.2101-4.5161 3.3164-9.7986 3.3164-15.85v-70.758h-41.223zm54.477 0v69.168c0 12.587 4.3006 22.005 12.9 28.248 8.5987 6.2459 20.779 9.3672 36.537 9.3672 15.663 0 27.818-3.1213 36.467-9.3672 8.6467-6.2427 12.973-15.661 12.973-28.248v-69.168h-41.223v67.418c0 4.1284-0.81729 7.0591-2.4512 8.791-1.6339 1.7255-3.5544 2.5898-5.7656 2.5898-2.209 0-4.1317-0.86435-5.7656-2.5898-1.6339-1.7319-2.4492-4.6626-2.4492-8.791v-67.418h-41.223zm112.85 0v104.09h40.359v-37h4.7539c3.3626 0 5.7649 0.55295 7.207 1.6543 1.4411 1.1045 2.4024 2.9565 2.8828 5.5469 0.38451 2.2069 0.74547 4.6525 1.082 7.3398 0.33551 2.6852 0.71988 5.3507 1.1524 7.9922 0.43134 2.6383 0.88878 5.2312 1.3691 7.7715 0.48037 2.5456 1.0097 4.7791 1.5859 6.6953h40.357 37.904l4.1797-16.744h29.836l4.0352 16.744h42.664l-33.439-104.09h-53.475l-32.445 101.43c-0.80796-3.0128-1.4775-5.969-2-8.8652-0.67212-3.7439-1.2005-7.3008-1.584-10.66-0.38451-3.3626-0.74441-6.5043-1.082-9.4355-0.33657-2.9302-0.79096-5.4992-1.3672-7.7051-1.0566-4.0325-2.9793-7.1311-5.7656-9.2891-2.7885-2.1601-6.7271-3.4855-11.818-3.9648v-0.28711c7.7828-1.9257 13.164-5.0287 16.143-9.3105 2.9781-4.2807 4.4688-9.4461 4.4688-15.51 0-4.907-0.79508-9.0413-2.3789-12.408-1.586-3.3658-3.893-6.0862-6.918-8.1504-3.0271-2.0706-6.7516-3.5606-11.172-4.4766-4.4202-0.91391-9.4156-1.3711-14.988-1.3711h-61.547zm436.63 0v104.09h41.221v-38.289h17.586v38.289h41.223v-104.09h-41.223v35.172h-17.586v-35.172h-41.221zm-278.52 22.781h0.28711l8.2168 39.158h-17.586l9.082-39.158zm-117.75 0.86914h3.7461c4.0368 0 7.2785 0.57959 9.7305 1.7363 2.4498 1.1546 3.6758 3.6595 3.6758 7.5078 1e-5 3.9516-1.2747 6.6955-3.8203 8.2324-2.5489 1.5444-5.8382 2.3125-9.875 2.3125h-3.457v-19.789zm-216.08 102.41-3.9297 6.8203h7.0586l6.1738-6.8203h-9.3027zm160.84 8.0488c-2.4871 0-4.6646 0.36642-6.5371 1.1035-1.8704 0.73493-3.4268 1.7774-4.6719 3.127-1.2409 1.3516-2.1782 2.9598-2.8066 4.8301-0.62948 1.8736-0.9414 3.9305-0.9414 6.1758 0 2.2485 0.31191 4.3031 0.9414 6.1777 0.62842 1.8693 1.5658 3.4795 2.8066 4.8301 1.2451 1.3495 2.8015 2.392 4.6719 3.127 1.8725 0.73494 4.05 1.1016 6.5371 1.1016 0.85634 0 1.6919-0.03908 2.5078-0.12109 0.81696-0.08092 1.6113-0.17153 2.3867-0.28125 0.74559-0.10651 1.4417-0.19162 2.084-0.25977 0.6423-0.06504 1.2031-0.09961 1.6856-0.09961h7.2188v-7.0547h-4.0508c0.42604-0.55918 0.82164-1.1299 1.1816-1.7051 0.36108-0.57411 0.66842-1.18 0.92187-1.8223 0.25566-0.64334 0.44782-1.3382 0.58203-2.0859 0.13316-0.74981 0.20118-1.5756 0.20118-2.4863 0-2.2187-0.30836-4.221-0.92188-6.0137-0.61564-1.7905-1.5384-3.3234-2.7676-4.5898-1.2302-1.2739-2.7685-2.2471-4.6133-2.9277-1.8437-0.68379-3.9833-1.0254-6.416-1.0254zm167.73 0c-2.4583 0-4.6236 0.36553-6.4961 1.1016-1.8704 0.736-3.4413 1.768-4.7109 3.0898-1.2707 1.324-2.2202 2.9109-2.8496 4.7695-0.62738 1.8586-0.90124 3.9112-0.82032 6.1543 0 2.2986 0.29485 4.3912 0.88282 6.2754 0.5901 1.8853 1.4985 3.5018 2.7266 4.8535 1.2302 1.3484 2.7733 2.3931 4.6309 3.127 1.8586 0.73602 4.0572 1.1016 6.5996 1.1016 1.7884 0 3.5067-0.22095 5.1523-0.66406 1.6434-0.44096 3.086-1.1282 4.3301-2.0644 1.242-0.93306 2.2328-2.128 2.9688-3.5723 0.73398-1.4411 1.1016-3.1682 1.1016-5.1738h-10.748c-0.0799 1.521-0.3547 2.5541-0.82226 3.1016-0.46974 0.5464-1.0765 0.82032-1.8242 0.82032-0.72323 0-1.2888-0.19343-1.7031-0.58008-0.41433-0.38451-0.72928-0.91901-0.94336-1.5996-0.21406-0.68064-0.34901-1.4934-0.40234-2.4414-0.05219-0.94796-0.08008-1.9675-0.08008-3.0625 0-1.1482 0.02796-2.1968 0.08008-3.1426 0.05329-0.94478 0.19499-1.7608 0.42188-2.4414 0.23006-0.68057 0.55531-1.2007 0.98242-1.5586 0.42818-0.36322 1.0157-0.54101 1.7656-0.54101 0.34615 0 0.68138 0.05471 1.002 0.16016 0.32165 0.10653 0.60104 0.30083 0.84179 0.58203 0.24087 0.2833 0.44056 0.67446 0.60157 1.1836 0.16063 0.50808 0.26702 1.1784 0.32031 2.0039h10.508c0-2.11-0.36769-3.9041-1.1016-5.375-0.73599-1.4741-1.719-2.6589-2.9492-3.5547-1.2302-0.89685-2.6592-1.5489-4.291-1.9473-1.6286-0.40153-3.3546-0.60546-5.1738-0.60546zm120.99 0c-2.4871 0-4.6647 0.36553-6.5371 1.1016-1.8704 0.736-3.4278 1.7783-4.6719 3.1289-1.242 1.3516-2.1791 2.9598-2.8086 4.8301-0.62933 1.8736-0.94336 3.9305-0.94336 6.1758 0 2.2474 0.31388 4.3031 0.94336 6.1777 0.62952 1.8693 1.5666 3.4784 2.8086 4.8301 1.2441 1.3495 2.8015 2.392 4.6719 3.127 1.8724 0.73494 4.05 1.1016 6.5371 1.1016 2.4849 0 4.6645-0.36663 6.5371-1.1016 1.8735-0.73493 3.4258-1.7774 4.6699-3.127 1.2451-1.3517 2.1791-2.9608 2.8086-4.8301 0.62858-1.8746 0.94336-3.9303 0.94336-6.1777 0-2.2453-0.3149-4.3022-0.94336-6.1758-0.62948-1.8703-1.5635-3.4785-2.8086-4.8301-1.2442-1.3506-2.7964-2.3929-4.6699-3.1289-1.8726-0.73604-4.0522-1.1016-6.5371-1.1016zm-489.53 0.76171v28.949h11.229v-10.303h1.3223c0.93518 0 1.6054 0.15419 2.0059 0.46094 0.40048 0.30677 0.66763 0.82188 0.80078 1.543 0.10757 0.61458 0.20687 1.2951 0.30273 2.0449 0.092671 0.74559 0.19889 1.4927 0.32031 2.2266 0.11929 0.73597 0.24666 1.4561 0.38086 2.1602 0.13314 0.71151 0.28165 1.3336 0.44141 1.8672h11.229c-0.32168-1.0982-0.57336-2.1664-0.75976-3.207-0.18959-1.0449-0.33579-2.0325-0.44336-2.9688-0.10651-0.93836-0.20705-1.8122-0.30078-2.627-0.092662-0.81804-0.22215-1.535-0.38086-2.1484-0.29397-1.1226-0.82811-1.9839-1.6035-2.5879-0.77542-0.59966-1.8725-0.96854-3.2891-1.0996v-0.08008c2.1643-0.53362 3.6646-1.3981 4.4922-2.5879 0.82973-1.1897 1.2422-2.6216 1.2422-4.3066 0-1.3634-0.22221-2.5153-0.66211-3.4473-0.44202-0.93733-1.0843-1.6906-1.9258-2.2637-0.84144-0.57516-1.8751-0.98853-3.1074-1.2441-1.2291-0.25236-2.6202-0.38086-4.1699-0.38086h-17.123zm30.389 0v28.949h22.375v-7.5527h-11.389v-3.2188h10.188v-7.5508h-10.188v-3.0742h11.029v-7.5527h-22.016zm25.256 0v28.949h11.469v-9.7461h3.7676c2.0323 0 3.7917-0.23539 5.2754-0.70508 1.4837-0.46654 2.7136-1.1241 3.6914-1.9805 0.97457-0.85636 1.7002-1.8777 2.1816-3.0664 0.48146-1.1898 0.72461-2.5081 0.72461-3.9492 0-1.3644-0.20657-2.626-0.62305-3.7891-0.41432-1.161-1.0414-2.1625-1.8828-3.0039-0.84357-0.84251-1.9147-1.5049-3.2109-1.9863-1.2973-0.4793-2.8136-0.72266-4.5508-0.72266h-16.842zm29.461 0v19.246c0 3.5021 1.1985 6.1211 3.5918 7.8594 2.3923 1.7383 5.7809 2.6055 10.166 2.6055 4.3585 0 7.7384-0.86721 10.145-2.6055 2.4072-1.7383 3.6113-4.3573 3.6113-7.8594v-19.246h-11.473v18.76c0 1.1493-0.22488 1.9609-0.67969 2.4434-0.45481 0.4793-0.98788 0.72266-1.6035 0.72266-0.61457 0-1.1517-0.24335-1.6055-0.72266-0.45376-0.48249-0.67969-1.2941-0.67969-2.4434v-18.76h-11.473zm31.393 0v28.949h16.16c3.6086 0 6.3628-0.75914 8.2598-2.2812 1.8991-1.5231 2.8496-3.5268 2.8496-6.0117 0-0.77756-0.11495-1.5392-0.3418-2.2891-0.22688-0.74557-0.59439-1.4264-1.1035-2.041-0.50592-0.6135-1.1484-1.1343-1.9238-1.5625-0.77647-0.42813-1.725-0.7209-2.8477-0.88282v-0.08007c1.0683-0.23968 1.9586-0.57377 2.668-1.002 0.70829-0.42922 1.2684-0.91755 1.6816-1.4629 0.4154-0.54961 0.70243-1.1535 0.86328-1.8086 0.1598-0.65508 0.24024-1.3309 0.24024-2.0254 0-2.4328-0.76309-4.2916-2.2852-5.5762-1.5263-1.2813-3.8638-1.9258-7.0176-1.9258h-17.203zm30.387 0v28.949h22.016v-7.7871h-10.547v-21.162h-11.469zm24.455 0v28.949h11.471v-28.949h-11.471zm47.262 0v19.246c0 3.5021 1.1965 6.1211 3.5898 7.8594 2.3933 1.7383 5.7809 2.6055 10.166 2.6055 4.3585 0 7.7404-0.86721 10.146-2.6055 2.4061-1.7383 3.6094-4.3573 3.6094-7.8594v-19.246h-11.471v18.76c0 1.1493-0.22683 1.9609-0.68164 2.4434-0.45375 0.4793-0.98789 0.72266-1.6035 0.72266-0.61459 0-1.1477-0.24335-1.6035-0.72266-0.45592-0.48249-0.68359-1.2941-0.68359-2.4434v-18.76h-11.469zm31.391 0v28.949h22.377v-7.5508h-11.389v-3.2207h10.186v-7.5508h-10.186v-3.0742h11.027v-7.5527h-22.016zm39.367 0v28.949h22.377v-7.5508h-11.389v-3.2207h10.188v-7.5508h-10.188v-3.0742h11.027v-7.5527h-22.016zm23.33 0v7.7852h7.1387v21.164h11.469v-21.164h7.1387v-7.7852h-25.746zm78.857 0-9.2617 28.949h10.986l1.1621-4.6543h8.3027l1.1211 4.6543h11.871l-9.3047-28.949h-14.877zm25.455 0v28.949h9.3027v-17.645h0.08008l6.1367 17.645h13.754v-28.949h-9.3027v17.521l-0.08008 0.01367-6.1348-17.535h-13.756zm31.43 0v7.7852h7.1387v21.164h11.469v-21.164h7.1348v-7.7852h-25.742zm59.092 0v28.949h9.3027v-17.645h0.08204l6.1367 17.645h13.754v-28.949h-9.3047v17.521l-0.08203 0.01367-6.1348-17.535h-13.754zm47.463 0v28.949h14.277c2.2155 0 4.2298-0.33076 6.0352-0.98047 1.8043-0.65933 3.3396-1.5899 4.6113-2.8105 1.2707-1.2142 2.2439-2.696 2.9277-4.4492 0.68168-1.7479 1.0215-3.7211 1.0215-5.9121 0-2.1398-0.25258-4.1154-0.76172-5.9336-0.50808-1.8192-1.3493-3.3824-2.5273-4.6914-1.1759-1.3112-2.7448-2.3332-4.709-3.0703-1.9652-0.73387-4.3948-1.1016-7.2812-1.1016h-13.594zm31.709 0v19.246c0 3.5021 1.1976 6.1211 3.5898 7.8594 2.3944 1.7383 5.7818 2.6055 10.168 2.6055 4.3542 0 7.7386-0.86721 10.143-2.6055 2.4072-1.7383 3.6113-4.3573 3.6113-7.8594v-19.246h-11.471v18.76c0 1.1493-0.22592 1.9609-0.67969 2.4434-0.45373 0.4793-0.98892 0.72266-1.6035 0.72266-0.6178 0-1.1537-0.24335-1.6074-0.72266-0.45275-0.48249-0.67969-1.2941-0.67969-2.4434v-18.76h-11.471zm56.854 0v19.115c0 0.98737-0.13708 1.7408-0.4043 2.2617-0.2663 0.52407-0.81408 0.78125-1.6406 0.78125-0.56345 0-0.99338-0.19629-1.2852-0.59571-0.29299-0.39412-0.44336-0.92538-0.44336-1.5879v-0.5957h-9.7031v1.4004c0 1.4667 0.31603 2.7643 0.94336 3.8848 0.62623 1.1226 1.4832 2.0582 2.5664 2.8027 1.0832 0.74773 2.359 1.3098 3.8301 1.6836 1.4677 0.37392 3.0485 0.56055 4.7324 0.56055 1.9492 0 3.7177-0.20888 5.293-0.62109 1.5785-0.41219 2.9271-1.0378 4.0508-1.8633 1.1206-0.8308 1.9908-1.8731 2.6055-3.1289 0.61584-1.2536 0.92188-2.726 0.92188-4.4121v-19.686h-11.467zm15.146 0v19.246c0 3.5021 1.1976 6.1211 3.5898 7.8594 2.3934 1.7383 5.7818 2.6055 10.168 2.6055 4.3553 0 7.7386-0.86721 10.143-2.6055 2.4072-1.7383 3.6133-4.3573 3.6133-7.8594v-19.246h-11.473v18.76c0 1.1493-0.22685 1.9609-0.68164 2.4434-0.45264 0.4793-0.98694 0.72266-1.6016 0.72266-0.6178 0-1.1526-0.24335-1.6074-0.72266-0.45389-0.48249-0.67969-1.2941-0.67969-2.4434v-18.76h-11.471zm31.391 0v28.949h11.23v-10.303h1.3242c0.93199 0 1.6017 0.15419 2 0.46094 0.40259 0.30677 0.67133 0.82188 0.80664 1.543 0.10658 0.61458 0.20283 1.2951 0.29883 2.0449 0.09184 0.74559 0.20201 1.4927 0.32031 2.2266 0.12038 0.73597 0.2475 1.4561 0.38281 2.1602 0.13229 0.71151 0.27883 1.3336 0.43945 1.8672h11.229 10.539l1.1641-4.6543h8.2969l1.125 4.6543h11.869l-9.3008-28.949h-14.881l-9.0156 28.182c-0.22096-0.82789-0.4154-1.6445-0.5586-2.4394-0.18837-1.0449-0.33596-2.0325-0.4414-2.9688-0.10545-0.93836-0.20932-1.8122-0.30079-2.627-0.09569-0.81804-0.21985-1.535-0.38085-2.1484-0.29719-1.1226-0.83003-1.9839-1.6055-2.5879-0.77643-0.59966-1.8696-0.96854-3.2852-1.0996v-0.08008c2.1654-0.53362 3.6615-1.3981 4.4902-2.5879 0.82969-1.1897 1.2441-2.6216 1.2441-4.3066 0-1.3634-0.22095-2.5153-0.66406-3.4473-0.43986-0.93733-1.0824-1.6906-1.9238-2.2637-0.84041-0.57516-1.8793-0.98853-3.1074-1.2441-1.2333-0.25236-2.6189-0.38086-4.1719-0.38086h-17.123zm-562.84 6.1758h1.4863c1.1493-1e-5 2.0212 0.19626 2.623 0.58398 0.60286 0.38769 0.90234 1.0643 0.90234 2.0293 0 0.85635-0.24707 1.5502-0.74023 2.0859-0.4974 0.53791-1.4104 0.80469-2.7461 0.80469h-1.5254v-5.5039zm271.44 0.1582h0.08008l2.2852 10.906h-4.8906l2.5254-10.906zm335.38 0h0.08008l2.2852 10.906h-4.8906l2.5254-10.906zm-722.84 0.25195h1.0449c1.1216 0 2.0234 0.16199 2.7051 0.48047 0.68275 0.31741 1.0215 1.013 1.0215 2.0781 0 1.0907-0.35419 1.8495-1.0625 2.2734-0.70723 0.42818-1.6245 0.64258-2.7461 0.64258h-0.96289v-5.4746zm55.885 0h1.2031c1.2547 0 2.1452 0.2359 2.666 0.69922 0.5219 0.46545 0.7832 1.2028 0.7832 2.2168 0 1.0097-0.30925 1.7817-0.92383 2.3164-0.61458 0.52933-1.6715 0.79688-3.168 0.79688h-0.56055v-6.0293zm499.1 0h1.123c0.93195 0 1.682 0.16197 2.2422 0.48047 0.56346 0.32169 1.0328 0.77549 1.4043 1.3613 0.37387 0.61459 0.63202 1.4224 0.7832 2.4258 0.14589 0.99805 0.22071 2.2056 0.22071 3.6211 0 1.4166-0.07482 2.625-0.22071 3.623-0.15129 1.0033-0.4094 1.8103-0.7832 2.4238-0.37172 0.5858-0.84084 1.0406-1.4043 1.3633-0.56023 0.31743-1.3102 0.47852-2.2422 0.47852h-1.123v-15.777zm135.1 0h1.041c1.1236 0 2.0247 0.16197 2.7031 0.48047 0.68591 0.31741 1.0254 1.013 1.0254 2.0781 0 1.0907-0.35438 1.8495-1.0606 2.2734-0.7104 0.42818-1.6244 0.64258-2.748 0.64258h-0.96094v-5.4746zm-500.51 0.20508c0.45586 0 0.87596 0.09574 1.2637 0.2832 0.38879 0.18642 0.71599 0.55993 0.98437 1.1191 0.26626 0.56344 0.47322 1.3415 0.61914 2.3438 0.14809 1.0023 0.22071 2.3168 0.22071 3.9453 0 1.6818-0.07958 3.026-0.23828 4.0293-0.16085 1.0002-0.37526 1.7746-0.64258 2.3242-0.2695 0.54852-0.59472 0.90738-0.98242 1.082-0.3877 0.17152-0.79644 0.25782-1.2246 0.25782-0.45374 0-0.86938-0.08634-1.2422-0.25782-0.37491-0.17465-0.69463-0.53351-0.96094-1.082-0.2695-0.5496-0.48387-1.324-0.64258-2.3242-0.16085-1.0033-0.24218-2.3474-0.24218-4.0293 0-1.6286 0.07262-2.943 0.2207-3.9453 0.14592-1.0023 0.35568-1.7803 0.62305-2.3438 0.26733-0.55921 0.59275-0.93273 0.98047-1.1191 0.3877-0.18742 0.80993-0.2832 1.2637-0.2832zm288.72 0c0.45479 0 0.87604 0.09574 1.2637 0.2832 0.38774 0.18642 0.71407 0.55993 0.98242 1.1191 0.26608 0.5592 0.47325 1.3374 0.61914 2.3418 0.14702 0.99693 0.22266 2.312 0.22266 3.9394 0 1.6797-0.0815 3.0224-0.24024 4.0215-0.16082 1.0034-0.37536 1.7746-0.64257 2.3242-0.26949 0.54428-0.59273 0.9075-0.98047 1.0801-0.38767 0.17039-0.79643 0.25782-1.2246 0.25782-0.45374 0-0.8684-0.0874-1.2422-0.25782-0.37497-0.17258-0.69568-0.53579-0.96289-1.0801-0.26967-0.54962-0.48302-1.3209-0.64063-2.3242-0.16214-0.99908-0.24414-2.3418-0.24414-4.0215 0-1.6275 0.0745-2.9425 0.22266-3.9394 0.14596-1.0044 0.35464-1.7826 0.62109-2.3418 0.26839-0.55921 0.59472-0.93273 0.98242-1.1191 0.38767-0.18742 0.80994-0.2832 1.2637-0.2832zm-362.28 10.332h1.4863c2.7001 0 4.0488 0.87022 4.0488 2.6074 0 1.0673-0.30248 1.843-0.9043 2.3223-0.60178 0.47931-1.6097 0.7207-3.0273 0.7207h-1.6035v-5.6504zm248.69 51.322-4.8476 7.6152h2.3438l6.7637-7.6152h-4.2598zm178.41 0-4.8477 7.6152h2.3438l6.7637-7.6152h-4.2598zm-144.43 10.119c-2.7693 0-5.1835 0.57714-7.2422 1.7305-2.0595 1.1542-3.7742 2.6713-5.1406 4.5527-1.3672 1.8823-2.3786 4.0214-3.0352 6.418-0.65756 2.3965-0.98438 4.8375-0.98438 7.3223 0 2.9474 0.36367 5.6558 1.0918 8.123 0.72726 2.4681 1.7833 4.5785 3.168 6.3359 1.3847 1.7574 3.0966 3.1255 5.1387 4.1016 2.0412 0.97609 4.376 1.4648 7.0039 1.4648 2.4847-1e-5 4.8204-0.16884 7.0039-0.50586 2.1835-0.33702 4.4458-0.96697 6.7891-1.8906v-18.002h-13.102v3.1953h9.6406v12.41c-1.3497 0.3911-2.7437 0.75477-4.1816 1.0918-1.4379 0.33787-2.8845 0.50586-4.3398 0.50586-2.5921 0-4.8027-0.41733-6.6309-1.252-1.8291-0.83379-3.3283-1.9971-4.5-3.4883-1.1716-1.4912-2.0241-3.2667-2.5566-5.3262-0.53238-2.0587-0.79882-4.3139-0.79882-6.7637-1e-5 -1.988 0.23153-3.984 0.69335-5.9902 0.46103-2.0054 1.1971-3.8086 2.209-5.4062 1.0118-1.5977 2.3184-2.9022 3.916-3.9141 1.5977-1.0119 3.5491-1.5176 5.8574-1.5176 1.1359 0 2.2447 0.14201 3.3281 0.42578 1.0826 0.28459 2.0593 0.70984 2.9297 1.2773 0.86959 0.56835 1.5977 1.3056 2.1836 2.2109 0.58579 0.90536 0.96652 1.9614 1.1445 3.168h3.9414c-0.1423-1.7042-0.63104-3.1945-1.4648-4.4727-0.83464-1.2781-1.8729-2.3522-3.1152-3.2226-1.2432-0.86957-2.6451-1.5173-4.207-1.9434-1.5628-0.42606-3.1426-0.63867-4.7402-0.63867zm88.406 0.63867v38.611h3.4609v-38.611h-3.4609zm-494.32 0.16016v38.451h14.645c2.0945 0 3.8699-0.3021 5.3262-0.90625 1.4554-0.60329 2.6357-1.3851 3.541-2.3438s1.5621-2.0505 1.9707-3.2754c0.40775-1.2249 0.61328-2.4758 0.61328-3.7539 0-2.7693-0.7988-4.9799-2.3965-6.6309-1.5977-1.651-3.7109-2.6892-6.3379-3.1152v-0.10547c0.99356-0.24797 1.9245-0.63932 2.7949-1.1719 0.86957-0.53257 1.6246-1.1795 2.2637-1.9434 0.63907-0.76306 1.1448-1.6155 1.5176-2.5566 0.37279-0.94031 0.56055-1.9446 0.56055-3.0098 0-1.5261-0.29309-2.8843-0.87891-4.0742-0.58582-1.1891-1.3677-2.1906-2.3438-3.0078-0.97692-0.81632-2.1126-1.4392-3.4082-1.8652-1.2964-0.42606-2.6546-0.63867-4.0742-0.63867l-13.793-0.05273zm35.361 0v24.924c0.034949 2.0595 0.34778 3.9672 0.93359 5.7246 0.58582 1.7575 1.4631 3.2746 2.6348 4.5527 1.1716 1.2781 2.6272 2.2726 4.3672 2.9824 1.7391 0.70981 3.7817 1.0664 6.125 1.0664 2.3433-1e-5 4.385-0.3566 6.125-1.0664 1.7392-0.7098 3.1956-1.7043 4.3672-2.9824 1.1716-1.2782 2.0489-2.7953 2.6348-4.5527 0.58582-1.7574 0.89769-3.6651 0.93359-5.7246v-24.924h-3.4629v24.871c-0.1423 3.5149-1.1438 6.2561-3.0078 8.2266-1.864 1.9705-4.3945 2.957-7.5898 2.957-3.1954 0-5.7259-0.98656-7.5898-2.957-1.864-1.9705-2.8663-4.7117-3.0078-8.2266v-24.871h-3.4629zm38.771 0v38.451h3.4609v-18.32h9.5332c1.7391 0 3.1151 0.12508 4.1269 0.37305 1.0119 0.2488 1.7929 0.74464 2.3438 1.4902 0.55003 0.74559 0.94053 1.7937 1.1719 3.1426 0.23049 1.3497 0.45296 3.1252 0.66601 5.3262 0.10651 1.3497 0.23868 2.698 0.39844 4.0469 0.15977 1.3497 0.46981 2.6633 0.93164 3.9414h3.9961c-0.39111-0.56751-0.68419-1.1983-0.87891-1.8906-0.19555-0.69234-0.34662-1.4832-0.45312-2.3711-0.10651-0.88704-0.20476-1.9163-0.29297-3.0879-0.08905-1.1716-0.22317-2.5388-0.40039-4.1016-0.10651-1.1001-0.27539-2.1293-0.50586-3.0879-0.23134-0.9586-0.58515-1.811-1.0645-2.5566-0.4793-0.74559-1.1101-1.3656-1.8906-1.8633-0.78137-0.49677-1.7758-0.85339-2.9824-1.0664v-0.10547c2.2368-0.56751 4.0292-1.562 5.3789-2.9824 1.3489-1.4196 2.0234-3.1781 2.0234-5.2734 0-1.8456-0.31991-3.4433-0.95898-4.793-0.63908-1.3489-1.6336-2.4309-2.9824-3.248-1.4562-0.88704-2.9098-1.4464-4.3652-1.6777-1.4562-0.23048-3.0191-0.3457-4.6875-0.3457h-12.568zm35.469 0v38.451h23.646v-3.1953h-20.186v-15.072h18.641v-3.1953h-18.641v-13.793h19.387v-3.1953h-22.848zm42.818 0-15.232 38.451h3.5684l4.0469-10.385h19.119l4.1016 10.385h3.7813l-15.338-38.451h-4.0469zm22.846 0v24.924c0.03495 2.0595 0.34778 3.9672 0.9336 5.7246 0.58581 1.7575 1.4631 3.2746 2.6348 4.5527 1.1716 1.2781 2.6272 2.2726 4.3672 2.9824 1.7392 0.70981 3.7818 1.0664 6.125 1.0664 2.3433-1e-5 4.385-0.3566 6.125-1.0664 1.7391-0.7098 3.1956-1.7043 4.3672-2.9824 1.1716-1.2782 2.049-2.7953 2.6348-4.5527 0.58584-1.7574 0.89769-3.6651 0.9336-5.7246v-24.924h-3.4629v24.871c-0.1423 3.5149-1.1438 6.2561-3.0078 8.2266-1.864 1.9705-4.3945 2.957-7.5898 2.957-3.1954 0-5.7259-0.98656-7.5898-2.957-1.864-1.9705-2.8664-4.7117-3.0078-8.2266v-24.871h-3.4629zm52.938 0v38.451h10.385c6.3549 0 11.245-1.6066 14.672-4.8203 3.4259-3.2128 5.1387-8.0155 5.1387-14.406 0-6.3907-1.7128-11.191-5.1387-14.404-3.4267-3.2128-8.3169-4.8203-14.672-4.8203h-10.385zm39.037 0v38.451h23.645v-3.1953h-20.184v-15.072h18.641v-3.1953h-18.641v-13.793h19.385v-3.1953h-22.846zm47.238 0v38.451h22.793v-3.1953h-19.332v-35.256h-3.4609zm30.303 0v12.035h2.7676v-12.035h-2.7676zm14.219 0v38.451h23.645v-3.1953h-20.184v-15.072h18.641v-3.1953h-18.641v-13.793h19.385v-3.1953h-22.846zm80.203 0-15.23 38.451h3.5664l4.0488-10.385h19.119l4.0996 10.385h3.7812l-15.338-38.451h-4.0469zm25.137 0v38.451h22.795v-3.1953h-19.332v-35.256h-3.4629zm38.771 0v3.1953h12.408l0.05273 35.256h3.4082l0.05468-35.256h12.195v-3.1953h-28.119zm34.297 0v38.451h23.645v-3.1953h-20.184v-15.072h18.641v-3.1953h-18.641v-13.793h19.385v-3.1953h-22.846zm47.344 0v38.451h23.646v-3.1953h-20.186v-15.072h18.641v-3.1953h-18.641v-13.793h19.387v-3.1953h-22.848zm32.006 0v38.451h3.4629v-33.232h0.10547l20.771 33.232h4.3652v-38.451h-3.4609v33.816h-0.10547l-21.197-33.816h-3.9414zm34.297 0v3.1953h12.41l0.05274 35.256h3.4082l0.05273-35.256h12.197v-3.1953h-28.121zm34.352 0v38.451h3.4609v-18.32h9.5332c1.7391 0 3.1151 0.12508 4.127 0.37305 1.0118 0.2488 1.7928 0.74464 2.3438 1.4902 0.55004 0.74559 0.94057 1.7937 1.1719 3.1426 0.23047 1.3497 0.45285 3.1252 0.66601 5.3262 0.10651 1.3497 0.23857 2.698 0.39844 4.0469 0.15976 1.3497 0.46982 2.6633 0.93164 3.9414h3.9941c-0.3911-0.56751-0.68426-1.1983-0.87891-1.8906-0.19566-0.69234-0.34496-1.4832-0.45117-2.3711-0.10658-0.88704-0.20453-1.9163-0.29297-3.0879-0.08912-1.1716-0.22313-2.5388-0.40039-4.1016-0.10647-1.1001-0.27531-2.1293-0.50586-3.0879-0.23134-0.9586-0.58513-1.811-1.0644-2.5566s-1.1102-1.3656-1.8906-1.8633c-0.78138-0.49677-1.7758-0.85339-2.9824-1.0664v-0.10547c2.2368-0.56751 4.0292-1.562 5.3789-2.9824 1.3488-1.4196 2.0234-3.1781 2.0234-5.2734 0-1.8456-0.31991-3.4433-0.95899-4.793-0.63908-1.3489-1.6335-2.4309-2.9824-3.248-1.4562-0.88704-2.9118-1.4464-4.3672-1.6777-1.4562-0.23048-3.0172-0.3457-4.6855-0.3457h-12.568zm35.469 0v38.451h23.645v-3.1953h-20.184v-15.072h18.641v-3.1953h-18.641v-13.793h19.385v-3.1953h-22.846zm-717.41 3.1953h8.2012c1.1359 0 2.2466 0.09824 3.3301 0.29297 1.0826 0.19554 2.0502 0.53241 2.9023 1.0117 0.85209 0.4793 1.5436 1.1637 2.0762 2.0508 0.53256 0.88788 0.79883 2.0235 0.79883 3.4082 0 1.3139-0.25723 2.4137-0.77148 3.3008-0.51509 0.88788-1.1896 1.6082-2.0234 2.1582-0.83463 0.55088-1.7944 0.94137-2.877 1.1719-1.0834 0.23131-2.1753 0.3457-3.2754 0.3457h-8.3613v-13.74zm74.133 0h7.7754c0.92282 0 1.9978 8e-3 3.2227 0.02539 1.2249 0.0183 2.3775 0.23289 3.4609 0.64062 1.0826 0.40859 2.0056 1.0831 2.7695 2.0234 0.76307 0.94114 1.1445 2.334 1.1445 4.1797 0 1.6335-0.34478 2.9131-1.0371 3.8359-0.69233 0.92366-1.5716 1.6053-2.6367 2.0488-1.0651 0.44436-2.2454 0.71967-3.541 0.82618-1.2964 0.1065-2.5493 0.16015-3.7559 0.16015h-7.4023v-13.74zm76.797 0 8.3066 21.676h-16.775l8.4688-21.676zm77.273 0h5.4336c2.7335-0.07073 5.1816 0.18566 7.3477 0.77148 2.1652 0.58581 4.0121 1.5365 5.5391 2.8496 1.5261 1.3139 2.6894 2.9999 3.4883 5.0586 0.79884 2.0595 1.1992 4.5096 1.1992 7.3496 0 2.4148-0.28599 4.6077-0.85351 6.5781-0.56834 1.9705-1.4626 3.6565-2.6875 5.0586-1.2249 1.403-2.8055 2.485-4.7402 3.248-1.9355 0.76389-4.2534 1.1465-6.9512 1.1465h-7.7754v-32.061zm209.51 0 8.3086 21.676h-16.777l8.4688-21.676zm247.69 0h7.7754c0.92277 0 1.9978 8e-3 3.2226 0.02539 1.2249 0.0183 2.3775 0.23289 3.4609 0.64062 1.0826 0.40859 2.0056 1.0831 2.7695 2.0234 0.76309 0.94114 1.1445 2.334 1.1445 4.1797 0 1.6335-0.34481 2.9131-1.0371 3.8359-0.69229 0.92366-1.5716 1.6053-2.6367 2.0488-1.0651 0.44436-2.2454 0.71967-3.541 0.82618-1.2965 0.1065-2.5492 0.16015-3.7559 0.16015h-7.4023v-13.74zm-685.41 16.936h6.3906c1.8107 0 3.4789 0.08838 5.0059 0.26563 1.5261 0.17807 2.8504 0.53188 3.9688 1.0644 1.1184 0.53256 1.9878 1.2975 2.6094 2.291 0.62076 0.99438 0.93164 2.3088 0.93164 3.9414 0 1.4912-0.23041 2.7251-0.69141 3.7012-0.46183 0.97692-1.1454 1.7579-2.0508 2.3438-0.90535 0.58582-2.0071 0.99409-3.3027 1.2246-1.2965 0.23134-2.7599 0.32887-4.3926 0.29296h-8.4688v-15.125zm202.69 42.977c-1.527 0-3.0192 0.23237-4.4746 0.69336-1.4562 0.46182-2.7608 1.1265-3.9141 1.9961-1.1542 0.87041-2.0871 1.9544-2.7969 3.25-0.71066 1.2965-1.0645 2.7769-1.0645 4.4453 0 2.0953 0.52268 3.8172 1.5703 5.166 1.0468 1.3497 2.3612 2.4684 3.9414 3.3555 1.5794 0.88788 3.2843 1.6161 5.1133 2.1836 1.8282 0.56833 3.5232 1.1178 5.0859 1.6504 0.81632 0.28459 1.5883 0.61355 2.3164 0.98633 0.72729 0.37279 1.3671 0.82486 1.918 1.3574 0.55004 0.53256 0.98516 1.1554 1.3047 1.8652 0.31955 0.71064 0.47852 1.5433 0.47852 2.502 0 1.2432-0.28407 2.3252-0.85156 3.248-0.56836 0.92366-1.2965 1.6877-2.1836 2.291-0.88786 0.60413-1.8823 1.0652-2.9824 1.3848-1.1009 0.31954-2.1829 0.47851-3.248 0.47851-1.2782 0-2.4951-0.11436-3.6484-0.3457-1.1542-0.2305-2.1755-0.63879-3.0625-1.2246-0.88789-0.58582-1.5893-1.3668-2.1035-2.3438-0.51508-0.97608-0.7914-2.21-0.82617-3.7012h-3.7266c0.03495 1.5977 0.36277 3.0541 0.98437 4.3672 0.62076 1.3139 1.4562 2.4496 2.5039 3.4082 1.0468 0.95861 2.2539 1.7038 3.6211 2.2363 1.3664 0.53257 2.8129 0.79882 4.3398 0.79882 1.9172 1e-5 3.7712-0.17676 5.5644-0.53124 1.7924-0.35449 3.3829-0.95054 4.7676-1.7852 1.3846-0.83379 2.4935-1.9525 3.3281-3.3555 0.83379-1.4021 1.252-3.1488 1.252-5.2441 0-2.201-0.53255-3.9595-1.5977-5.2734-1.0651-1.3131-2.4063-2.3782-4.0215-3.1953-1.616-0.81632-3.3647-1.4909-5.2461-2.0234-1.8823-0.53257-3.6309-1.1456-5.2461-1.8379-1.616-0.69234-2.9544-1.5617-4.0195-2.6094-1.0651-1.0468-1.5977-2.4764-1.5977-4.2871 0-1.1716 0.27335-2.1831 0.82422-3.0352 0.55003-0.85209 1.2605-1.5456 2.1309-2.0781 0.86958-0.53256 1.8372-0.931 2.9023-1.1973 1.0652-0.26631 2.0954-0.40039 3.0898-0.40039 0.99355 0 1.9782 0.09036 2.9551 0.26758 0.9761 0.17807 1.8633 0.48811 2.6621 0.93164 0.79884 0.44435 1.4477 1.0573 1.9453 1.8379 0.49679 0.78136 0.76292 1.7561 0.79882 2.9277h3.7266c-0.21304-1.8456-0.74554-3.3628-1.5977-4.5527-0.85207-1.1891-1.8813-2.122-3.0879-2.7969-1.2074-0.67402-2.495-1.1439-3.8613-1.4102-1.3672-0.26631-2.6886-0.40039-3.9668-0.40039zm164.83 0c-2.7693 0-5.2194 0.48084-7.3496 1.4394-2.1302 0.95861-3.9235 2.3168-5.3789 4.0742-1.4562 1.7574-2.5572 3.8687-3.3027 6.3359-0.7456 2.4681-1.1172 5.1934-1.1172 8.1758 0 2.9824 0.37159 5.7066 1.1172 8.1738 0.74557 2.4681 1.8465 4.5804 3.3027 6.3379 1.4554 1.7574 3.2487 3.1156 5.3789 4.0742 2.1302 0.95862 4.5803 1.4375 7.3496 1.4375 2.7693 1e-5 5.2194-0.47888 7.3496-1.4375 2.1302-0.9586 3.9226-2.3168 5.3789-4.0742 1.4554-1.7575 2.5552-3.8698 3.3008-6.3379 0.7457-2.4673 1.1191-5.1915 1.1191-8.1738 0-2.9823-0.37359-5.7077-1.1191-8.1758-0.74558-2.4673-1.8454-4.5785-3.3008-6.3359-1.4562-1.7574-3.2486-3.1156-5.3789-4.0742-2.1302-0.95861-4.5803-1.4394-7.3496-1.4394zm170.05 0c-1.527 0-3.0192 0.23237-4.4746 0.69336-1.4562 0.46182-2.7607 1.1265-3.9141 1.9961-1.1542 0.87041-2.0851 1.9544-2.7949 3.25-0.71059 1.2965-1.0664 2.7769-1.0664 4.4453 0 2.0953 0.52466 3.8172 1.5723 5.166 1.0468 1.3497 2.3593 2.4684 3.9394 3.3555 1.5794 0.88788 3.2842 1.6161 5.1133 2.1836 1.8282 0.56833 3.5232 1.1178 5.0859 1.6504 0.81634 0.28459 1.5883 0.61355 2.3164 0.98633 0.72729 0.37279 1.3671 0.82486 1.918 1.3574 0.55011 0.53256 0.98532 1.1554 1.3047 1.8652 0.31941 0.71064 0.47852 1.5433 0.47852 2.502 0 1.2432-0.28407 2.3252-0.85157 3.248-0.56836 0.92366-1.2966 1.6877-2.1836 2.291-0.88792 0.60413-1.8823 1.0652-2.9824 1.3848-1.1009 0.31954-2.1829 0.47851-3.248 0.47851-1.2782 0-2.4951-0.11436-3.6484-0.3457-1.1542-0.2305-2.1755-0.63879-3.0625-1.2246-0.88788-0.58582-1.5892-1.3668-2.1035-2.3438-0.51511-0.97608-0.79216-2.21-0.82617-3.7012h-3.7266c0.03497 1.5977 0.3628 3.0541 0.98438 4.3672 0.62079 1.3139 1.4562 2.4496 2.5039 3.4082 1.0468 0.95861 2.2539 1.7038 3.6211 2.2363 1.3664 0.53257 2.8129 0.79882 4.3398 0.79882 1.9172 1e-5 3.7732-0.17676 5.5664-0.53124 1.7924-0.35449 3.381-0.95054 4.7656-1.7852 1.3846-0.83379 2.4935-1.9525 3.3281-3.3555 0.8338-1.4021 1.252-3.1488 1.252-5.2441 0-2.201-0.53251-3.9595-1.5976-5.2734-1.0651-1.3131-2.4063-2.3782-4.0215-3.1953-1.616-0.81632-3.3646-1.4909-5.2461-2.0234-1.8823-0.53257-3.629-1.1456-5.2441-1.8379-1.616-0.69234-2.9563-1.5617-4.0215-2.6094-1.0651-1.0468-1.5976-2.4764-1.5976-4.2871 0-1.1716 0.27526-2.1831 0.82617-3.0352 0.55003-0.85209 1.2586-1.5456 2.1289-2.0781 0.86964-0.53256 1.8372-0.931 2.9024-1.1973 1.0652-0.26631 2.0955-0.40039 3.0898-0.40039 0.99356 0 1.9782 0.09036 2.9551 0.26758 0.97606 0.17807 1.8633 0.48811 2.6621 0.93164 0.79884 0.44435 1.4477 1.0573 1.9453 1.8379 0.49686 0.78136 0.76481 1.7561 0.79883 2.9277h3.7266c-0.21297-1.8456-0.74556-3.3628-1.5976-4.5527-0.85206-1.1891-1.8813-2.122-3.0879-2.7969-1.2074-0.67402-2.495-1.1439-3.8613-1.4102-1.3672-0.26631-2.6886-0.40039-3.9668-0.40039zm-541.29 0.79882v38.451h3.4609v-18.479h17.627v-3.1953h-17.627v-13.582h18.268v-3.1953h-21.729zm29.982 0v38.451h23.646v-3.1953h-20.186v-15.07h18.641v-3.1953h-18.641v-13.795h19.387v-3.1953h-22.848zm32.273 0v38.451h3.4609v-35.361h0.10742l14.697 35.361h3.4629l14.697-35.521h0.10742v35.521h3.4609v-38.451h-5.2715l-14.752 33.498-14.434-33.498h-5.5371zm50.273 0v38.451h3.4609v-35.361h0.10742l14.697 35.361h3.4629l14.697-35.521h0.10742v35.521h3.4609v-38.451h-5.2715l-14.752 33.498-14.432-33.498h-5.5391zm50.539 0v38.451h23.646v-3.1953h-20.184v-15.07h18.639v-3.1953h-18.639v-13.795h19.385v-3.1953h-22.848zm79.885 0v38.451h23.645v-3.1953h-20.184v-15.07h18.639v-3.1953h-18.639v-13.795h19.385v-3.1953h-22.846zm26.52 0v3.1953h12.41l0.05273 35.256h3.4082l0.05274-35.256h12.195v-3.1953h-28.119zm48.943 0v38.451h3.4609v-18.373h20.984v18.373h3.4609v-38.451h-3.4609v16.883h-20.984v-16.883h-3.4609zm78.713 0v38.451h3.4609v-35.361h0.10742l14.697 35.361h3.4629l14.697-35.521h0.10742v35.521h3.4609v-38.451h-5.2715l-14.752 33.498-14.432-33.498h-5.5391zm50.273 0v38.451h3.4609v-35.361h0.10743l14.699 35.361h3.4609l14.699-35.521h0.10547v35.521h3.4629v-38.451h-5.2734l-14.752 33.498-14.432-33.498h-5.5391zm50.539 0v38.451h23.646v-3.1953h-20.184v-15.07h18.639v-3.1953h-18.639v-13.795h19.385v-3.1953h-22.848zm-126.7 2.3965c2.3782 0 4.4208 0.48084 6.125 1.4394s3.0962 2.2273 4.1797 3.8066c1.0826 1.5802 1.8715 3.3825 2.3691 5.4062 0.4969 2.0237 0.7461 4.0833 0.7461 6.1777 0 2.0953-0.24931 4.154-0.7461 6.1777-0.49761 2.0237-1.2865 3.8249-2.3691 5.4043-1.0834 1.5802-2.4755 2.85-4.1797 3.8086-1.7042 0.95862-3.7468 1.4375-6.125 1.4375-2.4148 0-4.4645-0.47888-6.1504-1.4375-1.6867-0.95861-3.0717-2.2284-4.1543-3.8086-1.0834-1.5794-1.8743-3.3806-2.3711-5.4043-0.49764-2.0237-0.74415-4.0824-0.74415-6.1777 0-2.0945 0.24652-4.154 0.74415-6.1777 0.49677-2.0237 1.2877-3.826 2.3711-5.4062 1.0826-1.5794 2.4676-2.848 4.1543-3.8066 1.6859-0.95861 3.7356-1.4394 6.1504-1.4394z" fill="#231f20" fill-rule="evenodd"/>
<path d="m121.08 30.259h7.1e-4v-19.664h-7.1e-4zm9.999-3.0551h9.0978v-2.733h-9.0978v-2.733h9.0978v-2.733h-9.0978v-2.733h9.0978v-2.7327h-9.0978v-2.3785h-9.4329v18.533h9.4329zm-9.9987 3.0551h19.662v-19.664h-19.662zm6.6133-15.472c-0.20881-2.1105-1.1788-2.9748-2.7342-2.9748-1.5593 0.0021-2.3562 1.1692-2.3562 2.3128 0 0.70961 0.38805 1.7058 1.3905 1.7058 1.0007-0.0011 1.3457-0.65831 1.3457-1.1819 0-0.51516-0.46274-0.90744-0.87758-0.90744-0.41285 0-0.68255 0.186-0.68255 0.186 0.10344-0.73103 0.6603-0.86658 1.0072-0.86658 0.51543 0 1.2042 0.34409 1.2042 1.6604 0 0.41258-0.18122 1.9789-0.44923 3.9344h2.618c-0.22545-1.7706-0.40581-3.2468-0.46584-3.8687zm-3.6233 14.338 1.7312-3.4085 1.0562 3.244 0.99874-3.2645 1.7788 3.4376s-0.65045-4.1618-1.1349-7.9237l-3.2952 0.0028c-0.53065 3.8338-1.1349 7.9125-1.1349 7.9125zm5.2961-9.4002v0.47909h-5.0132l-2e-3 -0.47542 5.0157-0.0037zm-0.53178 0.75301v0.47034l-3.9617 0.0021v-0.47428l3.9617 0.0021zm0-1.5288v0.47063l-3.9617 0.0011v-0.47176h3.9617z" fill="#ef2e31" fill-rule="evenodd"/>
</svg>
