<?xml version="1.0" encoding="UTF-8"?>
<!DOCTYPE svg PUBLIC "-//W3C//DTD SVG 1.1//EN" "http://www.w3.org/Graphics/SVG/1.1/DTD/svg11.dtd">
<svg version="1.2" width="78.91mm" height="19.73mm" viewBox="6554 13863 7891 1973" preserveAspectRatio="xMidYMid" fill-rule="evenodd" stroke-width="28.222" stroke-linejoin="round" xmlns="http://www.w3.org/2000/svg" xmlns:ooo="http://xml.openoffice.org/svg/export" xmlns:xlink="http://www.w3.org/1999/xlink" xmlns:presentation="http://sun.com/xmlns/staroffice/presentation" xmlns:smil="http://www.w3.org/2001/SMIL20/" xmlns:anim="urn:oasis:names:tc:opendocument:xmlns:animation:1.0" xml:space="preserve">
 <defs class="ClipPathGroup">
  <clipPath id="presentation_clip_path" clipPathUnits="userSpaceOnUse">
   <rect x="6554" y="13863" width="7891" height="1973"/>
  </clipPath>
  <clipPath id="presentation_clip_path_shrink" clipPathUnits="userSpaceOnUse">
   <rect x="6561" y="13864" width="7876" height="1970"/>
  </clipPath>
 </defs>
 <defs class="TextShapeIndex">
  <g ooo:slide="id1" ooo:id-list="id3"/>
 </defs>
 <defs class="EmbeddedBulletChars">
  <g id="bullet-char-template-57356" transform="scale(0.00048828125,-0.00048828125)">
   <path d="M 580,1141 L 1163,571 580,0 -4,571 580,1141 Z"/>
  </g>
  <g id="bullet-char-template-57354" transform="scale(0.00048828125,-0.00048828125)">
   <path d="M 8,1128 L 1137,1128 1137,0 8,0 8,1128 Z"/>
  </g>
  <g id="bullet-char-template-10146" transform="scale(0.00048828125,-0.00048828125)">
   <path d="M 174,0 L 602,739 174,1481 1456,739 174,0 Z M 1358,739 L 309,1346 659,739 1358,739 Z"/>
  </g>
  <g id="bullet-char-template-10132" transform="scale(0.00048828125,-0.00048828125)">
   <path d="M 2015,739 L 1276,0 717,0 1260,543 174,543 174,936 1260,936 717,1481 1274,1481 2015,739 Z"/>
  </g>
  <g id="bullet-char-template-10007" transform="scale(0.00048828125,-0.00048828125)">
   <path d="M 0,-2 C -7,14 -16,27 -25,37 L 356,567 C 262,823 215,952 215,954 215,979 228,992 255,992 264,992 276,990 289,987 310,991 331,999 354,1012 L 381,999 492,748 772,1049 836,1024 860,1049 C 881,1039 901,1025 922,1006 886,937 835,863 770,784 769,783 710,716 594,584 L 774,223 C 774,196 753,168 711,139 L 727,119 C 717,90 699,76 672,76 641,76 570,178 457,381 L 164,-76 C 142,-110 111,-127 72,-127 30,-127 9,-110 8,-76 1,-67 -2,-52 -2,-32 -2,-23 -1,-13 0,-2 Z"/>
  </g>
  <g id="bullet-char-template-10004" transform="scale(0.00048828125,-0.00048828125)">
   <path d="M 285,-33 C 182,-33 111,30 74,156 52,228 41,333 41,471 41,549 55,616 82,672 116,743 169,778 240,778 293,778 328,747 346,684 L 369,508 C 377,444 397,411 428,410 L 1163,1116 C 1174,1127 1196,1133 1229,1133 1271,1133 1292,1118 1292,1087 L 1292,965 C 1292,929 1282,901 1262,881 L 442,47 C 390,-6 338,-33 285,-33 Z"/>
  </g>
  <g id="bullet-char-template-9679" transform="scale(0.00048828125,-0.00048828125)">
   <path d="M 813,0 C 632,0 489,54 383,161 276,268 223,411 223,592 223,773 276,916 383,1023 489,1130 632,1184 813,1184 992,1184 1136,1130 1245,1023 1353,916 1407,772 1407,592 1407,412 1353,268 1245,161 1136,54 992,0 813,0 Z"/>
  </g>
  <g id="bullet-char-template-8226" transform="scale(0.00048828125,-0.00048828125)">
   <path d="M 346,457 C 273,457 209,483 155,535 101,586 74,649 74,723 74,796 101,859 155,911 209,963 273,989 346,989 419,989 480,963 531,910 582,859 608,796 608,723 608,648 583,586 532,535 482,483 420,457 346,457 Z"/>
  </g>
  <g id="bullet-char-template-8211" transform="scale(0.00048828125,-0.00048828125)">
   <path d="M -4,459 L 1135,459 1135,606 -4,606 -4,459 Z"/>
  </g>
  <g id="bullet-char-template-61548" transform="scale(0.00048828125,-0.00048828125)">
   <path d="M 173,740 C 173,903 231,1043 346,1159 462,1274 601,1332 765,1332 928,1332 1067,1274 1183,1159 1299,1043 1357,903 1357,740 1357,577 1299,437 1183,322 1067,206 928,148 765,148 601,148 462,206 346,322 231,437 173,577 173,740 Z"/>
  </g>
 </defs>
 <defs class="TextEmbeddedBitmaps"/>
 <g class="SlideGroup">
  <g>
   <g id="container-id1">
    <g id="id1" class="Slide" clip-path="url(#presentation_clip_path)">
     <g class="Page">
      <g class="Graphic">
       <g id="id3">
        <rect class="BoundingBox" stroke="none" fill="none" x="6554" y="13863" width="7892" height="1974"/>
        <path fill="rgb(218,218,218)" stroke="none" d="M 13130,14964 L 13131,14977 13131,14989 13133,15002 13135,15014 13138,15026 13141,15037 13145,15049 13149,15060 13154,15071 13160,15082 13166,15092 13172,15102 13179,15111 13186,15121 13194,15130 13202,15138 13210,15146 13219,15154 13229,15161 13238,15168 13248,15175 13258,15180 13269,15186 13280,15191 13291,15195 13303,15199 13314,15203 13326,15205 13338,15208 13350,15209 13363,15210 13376,15210 13388,15210 13401,15209 13413,15208 13425,15205 13437,15203 13449,15199 13460,15195 13471,15191 13482,15186 13493,15180 13503,15175 13513,15168 13523,15161 13532,15154 13541,15146 13549,15138 13558,15130 13565,15121 13572,15111 13579,15102 13586,15092 13592,15082 13597,15071 13602,15060 13606,15049 13610,15037 13613,15026 13616,15014 13618,15002 13620,14989 13621,14977 13621,14964 13621,14952 13620,14939 13618,14927 13616,14915 13613,14903 13610,14891 13606,14880 13602,14868 13597,14857 13592,14847 13586,14837 13579,14827 13572,14817 13565,14808 13558,14799 13549,14790 13541,14782 13532,14774 13523,14767 13513,14760 13503,14754 13493,14748 13482,14742 13471,14737 13460,14733 13449,14729 13437,14726 13425,14723 13413,14721 13401,14720 13388,14719 13376,14718 13363,14719 13350,14720 13338,14721 13326,14723 13314,14726 13303,14729 13291,14733 13280,14737 13269,14742 13258,14748 13248,14754 13238,14760 13229,14767 13219,14774 13210,14782 13202,14790 13194,14799 13186,14808 13179,14817 13172,14827 13166,14837 13160,14847 13154,14857 13149,14868 13145,14880 13141,14891 13138,14903 13135,14915 13133,14927 13131,14939 13131,14952 13130,14964 Z M 13061,14661 L 13069,14653 13077,14646 13085,14639 13093,14632 13101,14625 13109,14618 13118,14612 13127,14605 13135,14600 13144,14594 13154,14588 13163,14583 13172,14577 13182,14572 13192,14568 13202,14563 13212,14559 13222,14555 13233,14552 13243,14548 13253,14545 13264,14542 13275,14539 13285,14537 13297,14534 13308,14533 13319,14531 13330,14530 13341,14529 13352,14528 13364,14527 13376,14527 13398,14528 13420,14529 13442,14532 13463,14536 13485,14541 13505,14547 13526,14554 13545,14562 13565,14570 13583,14580 13602,14591 13619,14602 13637,14614 13653,14627 13669,14641 13684,14655 13699,14671 13712,14686 13725,14703 13737,14720 13749,14738 13759,14756 13769,14775 13778,14794 13786,14814 13792,14834 13798,14855 13803,14876 13807,14898 13810,14920 13811,14942 13812,14964 13811,14987 13810,15009 13807,15031 13803,15053 13798,15073 13792,15094 13786,15114 13778,15135 13769,15154 13759,15173 13749,15191 13737,15209 13725,15225 13712,15242 13699,15258 13684,15273 13669,15288 13653,15302 13637,15314 13619,15327 13602,15338 13583,15348 13565,15358 13545,15367 13526,15375 13505,15382 13485,15387 13463,15392 13442,15396 13420,15399 13398,15401 13376,15401 13356,15401 13337,15399 13318,15397 13299,15394 13281,15391 13263,15386 13245,15381 13227,15375 13210,15369 13194,15361 13177,15353 13161,15344 13145,15336 13130,15325 13115,15315 13101,15304 13087,15292 13074,15280 13061,15267 13049,15254 13037,15240 13026,15225 13016,15211 13006,15196 12996,15180 12987,15164 12980,15147 12972,15131 12965,15113 12959,15096 12954,15078 12950,15060 12823,15206 12813,15220 12802,15234 12791,15248 12779,15261 12767,15274 12754,15286 12741,15298 12728,15309 12713,15320 12698,15330 12684,15339 12668,15348 12653,15356 12636,15364 12619,15371 12603,15377 12594,15380 12586,15383 12578,15385 12569,15387 12564,15388 12561,15389 12556,15390 12551,15391 12546,15392 12540,15394 12534,15395 12529,15395 12523,15396 12515,15398 12503,15399 12492,15400 12484,15400 12476,15401 12468,15401 12459,15401 12444,15401 12429,15400 12414,15399 12400,15397 12386,15395 12372,15392 12358,15389 12345,15386 12337,15384 12330,15382 12324,15380 12317,15378 12313,15376 12310,15375 12306,15373 12302,15372 12290,15367 12280,15362 12269,15357 12258,15352 12248,15346 12237,15340 12227,15334 12217,15328 12208,15321 12199,15314 12189,15307 12181,15300 12172,15293 12163,15285 12155,15277 12147,15269 12138,15259 12129,15249 12120,15238 12111,15227 12103,15217 12095,15205 12088,15193 12081,15181 12246,15086 12252,15096 12258,15105 12265,15114 12272,15123 12279,15131 12287,15139 12295,15147 12303,15154 12307,15157 12311,15161 12316,15164 12320,15167 12324,15170 12328,15172 12335,15177 12341,15180 12346,15182 12350,15185 12355,15187 12363,15191 12370,15194 12375,15195 12379,15197 12384,15198 12388,15200 12395,15202 12401,15203 12407,15205 12412,15206 12418,15207 12424,15208 12433,15209 12441,15210 12450,15210 12459,15210 12470,15210 12481,15209 12492,15208 12502,15207 12512,15205 12523,15202 12533,15199 12543,15196 12532,15186 12421,15074 12228,14881 12218,14871 11767,15363 11761,15369 11755,15374 11749,15378 11742,15382 11737,15385 11732,15388 11726,15390 11720,15392 11713,15394 11707,15395 11701,15396 11694,15396 11684,15396 11674,15394 11665,15392 11656,15389 11651,15388 11647,15385 11643,15384 11639,15381 11635,15378 11631,15376 11627,15372 11624,15369 11620,15365 11617,15361 11614,15357 11611,15353 11609,15349 11606,15344 11604,15340 11602,15336 11601,15331 11599,15326 11598,15321 11598,15316 11597,15306 11597,15297 11597,15291 11597,14870 11405,15062 11267,14925 11621,14570 11627,14565 11633,14561 11639,14556 11645,14552 11651,14549 11657,14546 11663,14544 11669,14542 11674,14540 11681,14539 11687,14538 11694,14538 11704,14538 11714,14539 11723,14541 11733,14544 11737,14546 11741,14548 11745,14550 11749,14553 11753,14556 11757,14559 11761,14562 11764,14565 11768,14568 11771,14572 11774,14576 11777,14581 11779,14585 11782,14589 11784,14594 11785,14599 11787,14603 11788,14608 11789,14612 11790,14617 11791,14627 11791,14637 11791,14643 11791,15049 12114,14697 12122,14688 12130,14679 12138,14669 12146,14660 12154,14652 12163,14644 12173,14635 12182,14627 12191,14619 12201,14612 12211,14605 12221,14598 12232,14592 12242,14585 12253,14579 12264,14573 12275,14568 12286,14563 12298,14559 12309,14554 12321,14550 12333,14546 12345,14543 12357,14539 12369,14537 12382,14534 12395,14532 12407,14530 12420,14529 12433,14528 12446,14527 12459,14527 12471,14527 12482,14528 12493,14529 12504,14529 12515,14531 12526,14532 12537,14534 12547,14536 12558,14538 12568,14541 12579,14544 12589,14547 12599,14550 12609,14554 12619,14558 12629,14562 12639,14566 12648,14570 12657,14575 12667,14580 12676,14585 12685,14590 12694,14596 12703,14602 12711,14607 12720,14614 12728,14620 12736,14627 12744,14634 12752,14641 12760,14647 12767,14655 12633,14790 12624,14782 12615,14774 12606,14767 12596,14760 12586,14754 12576,14748 12566,14742 12555,14737 12544,14733 12532,14729 12520,14726 12509,14723 12497,14721 12484,14720 12472,14719 12459,14718 12446,14719 12434,14720 12421,14721 12408,14724 12396,14727 12384,14730 12372,14734 12361,14739 12558,14936 12670,15048 12685,15063 12689,15067 13056,14666 13061,14661 Z M 11577,14254 L 11577,14247 11577,14240 11578,14233 11580,14227 11581,14220 11583,14214 11586,14208 11588,14202 11591,14196 11595,14191 11598,14185 11602,14180 11606,14175 11610,14170 11615,14166 11620,14162 11625,14158 11630,14154 11635,14151 11641,14148 11647,14145 11653,14143 11659,14140 11666,14139 11672,14137 11679,14136 11685,14135 11692,14135 11699,14135 11706,14135 11713,14136 11720,14137 11729,14140 11737,14142 11744,14146 11752,14149 11759,14153 11766,14158 11773,14163 11779,14169 11785,14175 11790,14182 11795,14189 11799,14196 11803,14203 11806,14211 11809,14219 11811,14228 11812,14235 11813,14242 11814,14249 11814,14256 11814,14263 11813,14270 11812,14276 11810,14283 11808,14289 11806,14295 11804,14301 11801,14307 11798,14313 11794,14318 11791,14324 11787,14329 11782,14334 11778,14338 11774,14343 11769,14347 11763,14351 11758,14354 11752,14357 11747,14360 11741,14363 11735,14365 11728,14367 11722,14369 11715,14370 11709,14371 11702,14372 11695,14372 11689,14372 11683,14372 11677,14371 11671,14370 11666,14368 11660,14367 11654,14365 11649,14363 11644,14360 11638,14358 11633,14355 11629,14352 11624,14349 11620,14345 11615,14341 11611,14337 11607,14333 11603,14329 11600,14324 11597,14320 11594,14315 11591,14310 11588,14305 11586,14300 11584,14294 11582,14289 11580,14283 11579,14277 11578,14272 11577,14266 11577,14260 11577,14254 Z"/>
        <path fill="rgb(77,124,162)" stroke="none" d="M 8040,14372 L 8047,14372 8053,14371 8060,14370 8066,14369 8073,14367 8079,14365 8085,14363 8091,14360 8097,14357 8102,14354 8108,14351 8113,14347 8118,14343 8123,14338 8127,14334 8131,14329 8135,14324 8139,14318 8142,14313 8145,14307 8148,14301 8151,14295 8153,14289 8155,14283 8156,14276 8157,14270 8158,14263 8158,14256 8158,14249 8158,14242 8157,14235 8155,14228 8153,14219 8151,14211 8147,14203 8144,14196 8139,14189 8134,14182 8129,14175 8124,14169 8117,14163 8111,14158 8104,14153 8096,14149 8089,14146 8081,14142 8073,14140 8065,14137 8058,14136 8051,14135 8044,14135 8037,14135 8030,14135 8023,14136 8016,14137 8010,14139 8004,14140 7998,14143 7991,14145 7986,14148 7980,14151 7975,14154 7969,14158 7964,14162 7959,14166 7955,14170 7950,14175 7946,14180 7942,14185 7939,14191 7936,14196 7933,14202 7930,14208 7928,14214 7926,14220 7924,14227 7923,14233 7922,14240 7921,14247 7921,14254 7921,14260 7922,14266 7922,14272 7923,14277 7925,14283 7926,14289 7928,14294 7930,14300 7933,14305 7935,14310 7938,14315 7941,14320 7944,14324 7948,14329 7952,14333 7956,14337 7960,14341 7964,14345 7969,14349 7973,14352 7978,14355 7983,14358 7988,14360 7993,14363 7999,14365 8004,14367 8010,14368 8015,14370 8021,14371 8027,14372 8033,14372 8040,14372 Z"/>
        <path fill="rgb(77,124,162)" stroke="none" d="M 10007,14964 L 10007,14977 10006,14989 10005,15002 10002,15014 10000,15026 9996,15037 9992,15049 9988,15060 9983,15071 9978,15082 9972,15092 9965,15102 9958,15111 9952,15121 9944,15130 9935,15138 9927,15146 9918,15154 9909,15161 9899,15168 9889,15175 9879,15180 9868,15186 9857,15191 9846,15195 9835,15199 9823,15203 9811,15205 9799,15208 9787,15209 9774,15210 9762,15210 9749,15210 9736,15209 9724,15208 9712,15205 9700,15203 9689,15199 9677,15195 9666,15191 9655,15186 9645,15180 9634,15175 9624,15168 9615,15161 9605,15154 9596,15146 9588,15138 9580,15130 9572,15121 9565,15111 9558,15102 9551,15092 9546,15082 9540,15071 9535,15060 9531,15049 9527,15037 9524,15026 9521,15014 9519,15002 9517,14989 9516,14977 9516,14964 9516,14952 9517,14939 9519,14927 9521,14915 9524,14903 9527,14891 9531,14880 9535,14868 9540,14857 9546,14847 9551,14837 9558,14827 9565,14817 9572,14808 9580,14799 9588,14790 9596,14782 9605,14774 9615,14767 9624,14760 9634,14754 9645,14748 9655,14742 9666,14737 9677,14733 9689,14729 9700,14726 9712,14723 9724,14721 9736,14720 9749,14719 9762,14718 9774,14719 9787,14720 9799,14721 9811,14723 9823,14726 9835,14729 9846,14733 9857,14737 9868,14742 9879,14748 9889,14754 9899,14760 9909,14767 9918,14774 9927,14782 9935,14790 9944,14799 9952,14808 9958,14817 9965,14827 9972,14837 9978,14847 9983,14857 9988,14868 9992,14880 9996,14891 10000,14903 10002,14915 10005,14927 10006,14939 10007,14952 10007,14964 Z M 9036,14964 L 9036,14975 9035,14987 9034,14998 9032,15009 9030,15019 9027,15030 9024,15040 9020,15051 9016,15060 9012,15070 9007,15080 9002,15089 8997,15098 8991,15106 8984,15115 8977,15123 8970,15131 8965,15136 8961,15141 8952,15149 8943,15156 8934,15163 8925,15170 8915,15176 8905,15182 8894,15187 8884,15192 8873,15196 8861,15200 8850,15203 8838,15206 8826,15208 8815,15209 8802,15210 8790,15210 8778,15210 8765,15209 8752,15208 8741,15205 8729,15203 8717,15199 8706,15195 8694,15191 8683,15186 8673,15180 8663,15175 8653,15168 8643,15161 8634,15154 8625,15146 8616,15138 8608,15130 8600,15121 8593,15111 8586,15102 8580,15092 8574,15082 8568,15071 8564,15060 8559,15049 8555,15037 8552,15026 8549,15014 8547,15002 8546,14989 8545,14977 8544,14964 8544,14957 8546,14949 8547,14942 8548,14935 8548,14928 8548,14920 8550,14910 8553,14899 8556,14889 8560,14879 8564,14869 8568,14859 8572,14850 8578,14840 8583,14831 8589,14822 8596,14814 8602,14806 8609,14798 8616,14790 8624,14783 8632,14776 8640,14769 8648,14764 8657,14758 8666,14752 8675,14747 8684,14742 8694,14737 8704,14733 8714,14730 8725,14727 8735,14725 8746,14722 8757,14721 8768,14719 8779,14719 8790,14718 8803,14719 8815,14720 8827,14721 8840,14723 8852,14726 8863,14729 8874,14733 8886,14737 8896,14742 8907,14748 8917,14754 8928,14760 8937,14767 8946,14774 8955,14782 8964,14790 8972,14799 8979,14808 8987,14817 8994,14827 9000,14837 9006,14847 9011,14857 9016,14868 9021,14880 9025,14891 9028,14903 9031,14915 9033,14927 9035,14939 9036,14952 9036,14964 Z M 7480,14964 L 7479,14977 7479,14989 7477,15002 7475,15014 7472,15026 7469,15037 7465,15049 7461,15060 7456,15071 7450,15082 7444,15092 7438,15102 7431,15111 7424,15121 7416,15130 7408,15138 7399,15146 7391,15154 7381,15161 7372,15168 7361,15175 7351,15180 7341,15186 7330,15191 7319,15195 7307,15199 7296,15203 7284,15205 7272,15208 7259,15209 7247,15210 7234,15210 7223,15210 7212,15209 7201,15208 7190,15206 7179,15204 7169,15202 7159,15198 7148,15195 7139,15191 7129,15186 7119,15182 7110,15177 7101,15171 7093,15165 7084,15159 7076,15152 7068,15145 7061,15138 7053,15130 7046,15122 7040,15114 7033,15105 7028,15097 7022,15088 7017,15078 7012,15068 7008,15058 7004,15049 7000,15038 6997,15028 6994,15017 6992,15007 6992,14999 6992,14992 6991,14985 6989,14978 6989,14972 6989,14964 6989,14952 6990,14939 6992,14927 6993,14915 6996,14903 6999,14891 7003,14880 7008,14868 7013,14857 7018,14847 7024,14837 7030,14827 7037,14817 7045,14808 7052,14799 7061,14790 7069,14782 7078,14774 7087,14767 7097,14760 7107,14754 7117,14748 7128,14742 7139,14737 7150,14733 7161,14729 7173,14726 7185,14723 7197,14721 7209,14720 7221,14719 7234,14718 7247,14719 7259,14720 7272,14721 7284,14723 7296,14726 7307,14729 7319,14733 7330,14737 7341,14742 7351,14748 7361,14754 7372,14760 7381,14767 7391,14774 7399,14782 7408,14790 7416,14799 7424,14808 7431,14817 7438,14827 7444,14837 7450,14847 7456,14857 7461,14868 7465,14880 7469,14891 7472,14903 7475,14915 7477,14927 7479,14939 7479,14952 7480,14964 Z M 10980,14546 L 10664,14863 10664,14643 10664,14637 10664,14627 10663,14617 10662,14612 10661,14608 10660,14603 10658,14599 10656,14594 10654,14589 10652,14585 10649,14581 10647,14576 10644,14572 10641,14568 10637,14565 10633,14562 10630,14559 10626,14556 10622,14553 10618,14550 10614,14548 10610,14546 10605,14544 10596,14541 10586,14539 10577,14538 10567,14538 10560,14538 10554,14539 10547,14540 10541,14542 10535,14544 10529,14546 10524,14549 10518,14552 10512,14556 10505,14561 10500,14565 10494,14570 10191,14883 10186,14864 10182,14846 10176,14828 10170,14810 10163,14792 10155,14775 10147,14759 10137,14742 10128,14727 10117,14711 10106,14696 10095,14682 10082,14668 10069,14654 10056,14642 10042,14629 10027,14618 10013,14606 9997,14596 9981,14587 9965,14577 9948,14569 9931,14562 9914,14555 9895,14548 9877,14543 9859,14538 9840,14534 9821,14531 9801,14529 9782,14528 9762,14527 9743,14528 9725,14529 9706,14531 9689,14533 9671,14537 9653,14541 9636,14546 9619,14551 9603,14558 9587,14564 9570,14571 9555,14579 9540,14588 9525,14597 9511,14607 9496,14617 9482,14629 9469,14639 9457,14649 9445,14659 9433,14669 9422,14679 9410,14690 9399,14701 9219,14882 9215,14863 9210,14845 9204,14826 9198,14809 9191,14791 9183,14774 9175,14758 9165,14741 9155,14726 9145,14710 9134,14695 9122,14681 9110,14667 9097,14654 9083,14641 9070,14629 9055,14617 9040,14606 9025,14596 9009,14586 8993,14577 8976,14569 8959,14562 8941,14555 8924,14548 8905,14543 8887,14538 8868,14534 8849,14531 8829,14529 8810,14528 8790,14527 8773,14528 8757,14528 8741,14530 8724,14532 8708,14535 8692,14538 8677,14542 8662,14547 8646,14552 8632,14557 8617,14563 8602,14569 8589,14577 8575,14584 8562,14592 8548,14601 8548,14159 8354,14159 8354,14832 8123,15063 8123,14643 8123,14637 8123,14627 8122,14617 8121,14612 8120,14608 8119,14603 8117,14599 8115,14594 8113,14589 8111,14585 8108,14581 8106,14576 8102,14572 8099,14568 8096,14565 8092,14562 8089,14559 8085,14556 8081,14553 8077,14550 8073,14548 8068,14546 8064,14544 8055,14541 8045,14539 8036,14538 8025,14538 8019,14538 8013,14539 8006,14540 8000,14542 7994,14544 7988,14546 7982,14549 7977,14552 7971,14556 7964,14561 7958,14565 7953,14570 7661,14872 7656,14853 7651,14836 7646,14818 7639,14801 7632,14783 7623,14767 7615,14751 7606,14735 7596,14720 7585,14705 7574,14690 7562,14676 7550,14663 7537,14650 7524,14638 7510,14626 7496,14614 7481,14604 7466,14594 7450,14584 7434,14576 7417,14567 7400,14560 7383,14554 7365,14548 7348,14542 7329,14538 7311,14534 7292,14531 7273,14529 7254,14528 7234,14527 7212,14528 7190,14529 7168,14532 7146,14536 7125,14541 7104,14547 7084,14554 7065,14562 7045,14570 7027,14580 7008,14591 6991,14602 6973,14614 6956,14627 6941,14641 6926,14655 6911,14671 6898,14686 6884,14703 6873,14720 6861,14738 6850,14756 6841,14775 6832,14794 6824,14814 6817,14834 6811,14855 6807,14876 6803,14898 6800,14920 6799,14942 6798,14964 6798,14972 6798,14978 6799,14985 6799,14992 6798,14999 6798,15007 6798,15707 6992,15707 6992,15328 7005,15337 7019,15344 7033,15352 7047,15359 7061,15365 7076,15372 7091,15377 7106,15382 7121,15386 7137,15390 7152,15393 7169,15396 7185,15398 7201,15400 7217,15401 7234,15401 7247,15401 7258,15400 7270,15400 7282,15398 7294,15397 7306,15395 7317,15393 7328,15391 7340,15388 7351,15385 7362,15382 7373,15379 7384,15375 7395,15371 7405,15366 7416,15362 7426,15357 7436,15351 7446,15346 7456,15341 7466,15335 7475,15329 7485,15322 7494,15315 7503,15308 7511,15302 7520,15294 7529,15287 7537,15279 7545,15271 7553,15263 7560,15255 7567,15249 7574,15243 7928,14876 7928,15291 7928,15297 7928,15306 7929,15316 7930,15321 7931,15326 7932,15331 7934,15336 7936,15340 7938,15344 7940,15349 7942,15353 7945,15357 7948,15361 7951,15365 7955,15369 7959,15372 7962,15376 7966,15379 7970,15381 7974,15384 7979,15385 7982,15388 7987,15389 7996,15392 8006,15394 8015,15396 8025,15396 8032,15396 8039,15395 8045,15394 8051,15392 8057,15390 8063,15388 8069,15385 8074,15382 8081,15378 8087,15374 8092,15369 8098,15363 8372,15089 8377,15106 8383,15123 8390,15138 8397,15154 8405,15170 8414,15185 8422,15200 8432,15214 8442,15228 8453,15242 8464,15255 8476,15267 8488,15279 8500,15291 8514,15302 8527,15313 8541,15323 8555,15333 8570,15342 8585,15350 8600,15358 8616,15365 8633,15372 8649,15378 8666,15383 8683,15388 8700,15392 8717,15395 8735,15398 8753,15400 8772,15401 8790,15401 8809,15401 8828,15399 8848,15397 8866,15394 8885,15391 8903,15386 8921,15381 8938,15375 8955,15369 8972,15361 8989,15353 9004,15345 9020,15336 9036,15326 9050,15315 9064,15304 9074,15298 9084,15290 9096,15280 9108,15268 9332,15043 9336,15062 9341,15081 9347,15099 9353,15117 9360,15135 9367,15152 9376,15169 9385,15185 9395,15201 9405,15217 9416,15231 9428,15246 9440,15260 9453,15273 9467,15286 9481,15299 9495,15310 9510,15321 9526,15332 9542,15342 9558,15351 9575,15359 9592,15367 9610,15374 9627,15380 9646,15385 9664,15390 9683,15394 9702,15397 9722,15399 9742,15401 9762,15401 9778,15401 9794,15400 9810,15398 9826,15396 9841,15394 9856,15391 9872,15387 9886,15383 9901,15379 9915,15373 9930,15368 9944,15361 9957,15355 9971,15347 9984,15340 9997,15332 10012,15324 10026,15314 10041,15305 10054,15296 10066,15286 10078,15277 10088,15268 10096,15260 10469,14875 10469,15291 10469,15296 10470,15302 10470,15306 10471,15312 10474,15322 10477,15332 10481,15341 10486,15349 10492,15358 10498,15365 10505,15372 10512,15378 10520,15383 10529,15387 10533,15389 10538,15391 10542,15392 10547,15394 10552,15395 10557,15395 10562,15396 10567,15396 10572,15396 10576,15395 10581,15395 10586,15394 10591,15392 10596,15391 10600,15389 10605,15387 10613,15383 10621,15378 10629,15372 10636,15365 10642,15358 10647,15349 10652,15341 10656,15332 10659,15322 10662,15312 10663,15306 10663,15302 10664,15296 10664,15291 10664,15139 11117,14684 10980,14546 Z"/>
        <path fill="rgb(77,124,162)" stroke="none" d="M 13779,14359 L 13798,14333 13805,14341 13813,14348 13818,14351 13822,14354 13827,14357 13832,14360 13837,14362 13843,14364 13849,14366 13855,14368 13861,14370 13867,14371 13874,14371 13881,14371 13890,14371 13897,14370 13904,14369 13910,14367 13916,14365 13921,14362 13926,14359 13930,14356 13933,14353 13935,14349 13938,14345 13940,14341 13941,14337 13942,14333 13943,14329 13943,14325 13942,14319 13941,14314 13939,14309 13936,14305 13933,14301 13929,14297 13924,14294 13919,14291 13913,14288 13907,14285 13900,14283 13894,14281 13880,14277 13865,14274 13851,14269 13836,14264 13829,14261 13823,14258 13817,14255 13811,14251 13806,14247 13801,14242 13797,14237 13794,14231 13791,14225 13788,14218 13788,14210 13787,14201 13788,14193 13788,14186 13791,14179 13794,14172 13797,14165 13802,14159 13807,14153 13813,14149 13819,14144 13826,14140 13833,14136 13841,14133 13850,14131 13859,14129 13868,14128 13877,14128 13879,14128 13886,14128 13893,14129 13900,14129 13907,14131 13913,14132 13919,14134 13926,14136 13932,14138 13937,14141 13942,14143 13948,14146 13953,14150 13958,14153 13962,14157 13967,14161 13971,14165 13951,14189 13947,14185 13943,14182 13939,14178 13935,14175 13931,14172 13926,14169 13921,14167 13917,14165 13912,14163 13906,14162 13901,14160 13897,14159 13886,14158 13875,14157 13869,14158 13864,14158 13859,14159 13854,14160 13849,14162 13844,14164 13840,14166 13836,14169 13833,14172 13830,14175 13827,14179 13825,14183 13823,14187 13822,14191 13821,14195 13821,14199 13822,14205 13823,14210 13825,14214 13827,14218 13831,14221 13835,14225 13840,14228 13845,14230 13857,14234 13870,14239 13884,14242 13899,14247 13913,14251 13928,14256 13934,14260 13941,14263 13947,14267 13952,14271 13958,14275 13963,14280 13967,14286 13970,14292 13973,14299 13975,14306 13976,14315 13977,14323 13976,14330 13975,14337 13974,14345 13971,14352 13969,14358 13965,14364 13960,14370 13955,14376 13949,14381 13942,14386 13934,14391 13925,14394 13915,14397 13904,14399 13893,14400 13880,14400 13871,14400 13863,14400 13856,14399 13848,14398 13841,14396 13833,14394 13827,14392 13821,14389 13814,14386 13808,14383 13803,14379 13797,14376 13792,14372 13788,14368 13783,14363 13779,14359 Z"/>
        <path fill="rgb(77,124,162)" stroke="none" d="M 14141,14166 L 14085,14308 14197,14308 14141,14166 Z M 14267,14396 L 14267,14396 14229,14396 14206,14337 14075,14337 14052,14396 14014,14396 14120,14132 14161,14132 14267,14396 Z"/>
       </g>
      </g>
     </g>
    </g>
   </g>
  </g>
 </g>
</svg>