<?xml version="1.0" encoding="utf-8"?>
<svg version="1.1" xmlns="http://www.w3.org/2000/svg" xmlns:xlink="http://www.w3.org/1999/xlink" viewBox="20 20 505.5 142.8" width="505.5" height="142.8">
<g fill="#005EB8">
<polygon points="80.6,123.3 88.6,131.2 129.3,131.2 121.3,123.3"/>
<polygon points="106.8,108.8 66.1,108.8 74,116.7 114.8,116.7"/>
<polygon points="51.6,94.2 59.5,102.2 100.3,102.2 92.3,94.2"/>
<polygon points="111.3,87.7 103.4,79.7 62.7,79.7 70.6,87.7"/>
<path d="M432.7,79.8h-33.4c-0.8,0-1.6,0.5-2.1,1.2l-4.1,5c-0.2,0.2-0.1,0.5,0.1,0.7c0.1,0.1,0.2,0.1,0.3,0.1h15.7 c0.2,0,0.4,0.2,0.4,0.3c0,0,0,0,0,0v43.7c0,0.3,0.2,0.5,0.5,0.5h6.1c0.3,0,0.5-0.2,0.5-0.5V87.1c0-0.1,0-0.2,0.1-0.3 c0.1-0.1,0.2-0.1,0.3-0.1h9.8c0.9,0,1.6-0.5,2.2-1.1l4.1-5c0.1-0.1,0.1-0.4,0.1-0.5C433.1,79.9,432.9,79.8,432.7,79.8"/>
<path d="M202.7,101.2h-11.6c-0.8,0.1-1.6,0.5-2.1,1.1l0,0l-4.1,5c-0.2,0.2-0.2,0.5,0.1,0.7c0.1,0.1,0.2,0.1,0.3,0.1 h11.7c0.8-0.1,1.6-0.5,2.1-1.2l0,0l4-5c0.1-0.1,0.1-0.4,0.1-0.5C203,101.3,202.9,101.2,202.7,101.2"/>
<path d="M204,125.6c-0.5-0.7-1.3-1.1-2.1-1.2h-18.7c-0.2,0-0.4-0.2-0.4-0.4V86.9c0-0.2,0.2-0.4,0.4-0.4h18.7 c0.8-0.1,1.6-0.5,2.1-1.1l4-4.9c0.1-0.1,0.2-0.4,0.1-0.5c-0.1-0.2-0.3-0.3-0.4-0.3h-31.3c-0.3,0-0.5,0.2-0.5,0.5v50.5 c0,0.3,0.2,0.5,0.5,0.5c0,0,0,0,0,0h31.3c0.2,0,0.3-0.1,0.4-0.2c0.1-0.2,0.1-0.4-0.1-0.5L204,125.6z"/>
<path d="M445.8,79.8h-4.5c-0.5,0-1,0.2-1.4,0.5c-0.4,0.4-0.6,1-0.6,1.5v48.9c0,0.1,0,0.3,0.1,0.4 c0.1,0.1,0.2,0.1,0.4,0.1h4.5c0.5,0,1.1-0.2,1.4-0.5c0.4-0.4,0.6-1,0.6-1.6V80.2C446.3,80,446.1,79.8,445.8,79.8"/>
<path d="M247.8,81.5l-0.8-0.3c-4.8-1.9-9.9-2.9-15.1-2.9c-14.2,0-22.4,7.8-23.7,22.5c-0.2,1.4-0.2,2.7-0.2,4.1 c0,17,8.5,26.4,24,26.4c5.1,0,10.1-1,14.9-2.7l0.8-0.3c0.2-0.1,0.3-0.3,0.3-0.5v-5.2c0.1-0.5-0.3-1-0.8-1c0,0-0.1,0-0.1,0 c-0.2,0-0.4,0-0.5,0.1c-4.5,1.7-9.4,2.7-14.2,2.8c-11.7,0-17.3-6.4-17.3-19.5s5.7-19.7,17.3-19.7c4.6,0.1,9.1,1,13.4,2.6 c0.4,0.2,0.8,0.3,1.2,0.3c0.3,0,0.5-0.1,0.7-0.2c0.2-0.2,0.4-0.5,0.4-0.8V82C248.1,81.8,248,81.6,247.8,81.5"/>
<path d="M478.3,85.2c4.6,0.1,9.1,1,13.4,2.6c0.4,0.2,0.8,0.3,1.2,0.3c0.3,0,0.5-0.1,0.7-0.2c0.2-0.2,0.4-0.5,0.4-0.8 V82c0-0.2-0.1-0.4-0.3-0.5l-0.8-0.3c-4.8-1.9-9.9-2.9-15.1-2.9c-14.2,0-22.4,7.8-23.7,22.5c-0.2,1.4-0.2,2.7-0.2,4.1 c0,17,8.5,26.4,24,26.4c5.1,0,10.2-1,14.9-2.7l0.8-0.3c0.2-0.1,0.3-0.3,0.3-0.5v-5.2c0.1-0.5-0.3-1-0.8-1c0,0-0.1,0-0.1,0 c-0.2,0-0.4,0-0.5,0.1c-4.5,1.7-9.4,2.7-14.2,2.8c-11.7,0-17.3-6.4-17.3-19.5S466.7,85.2,478.3,85.2"/>
<path d="M159,110c3.2-1,10.5-4.4,10.5-14.8c0-9.8-6.4-15.5-17.6-15.5h-18.2c-0.3,0-0.5,0.2-0.5,0.5c0,0,0,0,0,0v50.5 c0,0.3,0.2,0.5,0.5,0.5h6c0.3,0,0.5-0.2,0.5-0.5V86.4h11.5c7.5,0,10.9,2.8,10.9,9c0,5.6-3,8.5-9.2,8.9h-4.8 c-0.8,0.1-1.6,0.5-2.1,1.2l-4.1,5c-0.1,0.1-0.2,0.3-0.1,0.5c0.1,0.2,0.3,0.3,0.4,0.3h9l12.6,19.7c0.1,0.1,0.3,0.2,0.4,0.2h7 c0.2,0,0.3-0.1,0.4-0.3c0.1-0.2,0.1-0.4,0-0.5L159,110z"/>
<path d="M383.6,110.2c0-0.1-0.1-0.1-0.1-0.2c-0.5-0.6-1.2-0.9-2-0.9h-5.4c-0.8,0-1.5,0.3-2,0.9c0,0-0.1,0.1-0.1,0.2 l-2,5.1c-0.1,0.2,0,0.3,0.1,0.5c0.1,0.1,0.2,0.2,0.4,0.2h12.7c0.2,0,0.3-0.1,0.4-0.2c0.1-0.1,0.1-0.3,0-0.5L383.6,110.2z"/>
<path d="M382,80.1c-0.1-0.2-0.2-0.3-0.5-0.3h-5.5c-0.2,0-0.4,0.1-0.5,0.3l-20.5,50.5c-0.1,0.3,0,0.5,0.3,0.7 c0.1,0,0.1,0,0.2,0h6.5c0.2,0,0.4-0.1,0.5-0.3l0.3-0.7c1.1-2.5,2.1-5.1,3.1-7.7l0.4-0.9c0.7-1.8,1.4-3.6,2.2-5.4l9.9-24.9 c0.1-0.1,0.2-0.2,0.3-0.2h0.1c0.1,0,0.3,0.1,0.3,0.2l9.9,24.9c0.7,1.8,1.5,3.6,2.2,5.4l0.4,0.9c1,2.5,2,5.1,3.1,7.7l0.3,0.7 c0.1,0.2,0.3,0.3,0.5,0.3h6.5c0.2,0,0.3-0.1,0.4-0.2c0.1-0.1,0.1-0.3,0-0.5L382,80.1z"/>
<path d="M349.3,79.8H345c-0.2,0-0.3,0.1-0.4,0.2L328,104.1c-0.1,0.2-0.4,0.2-0.5,0.1c0,0-0.1,0-0.1-0.1L310.9,80 c-0.1-0.1-0.2-0.2-0.4-0.2h-4.3c-0.5,0-1.1,0.2-1.4,0.5c-0.4,0.4-0.6,1-0.5,1.6v48.9c0,0.1,0,0.3,0.1,0.4c0.1,0.1,0.2,0.1,0.4,0.1 h4.5c0.6,0,1.1-0.2,1.5-0.6c0.3-0.4,0.5-0.9,0.5-1.5V94.1c0-0.2,0.1-0.3,0.2-0.3c0.1,0,0.3,0,0.4,0.1l15.4,22.2 c0.2,0.2,0.5,0.3,0.7,0.1c0,0,0.1,0,0.1-0.1l15.5-22.2c0.1-0.1,0.3-0.2,0.4-0.1c0.1,0,0.3,0.2,0.2,0.3l0.1,33.7v1.4 c0,0.5,0.1,1.1,0.5,1.5c0.4,0.4,1,0.6,1.5,0.6h4.5c0.3,0,0.5-0.2,0.5-0.5v-49c0.1-1-0.7-1.9-1.7-2 C349.5,79.7,349.4,79.7,349.3,79.8"/>
<path d="M292.1,104.8c0,13-4.7,19-15.2,19.6c-1.4,0.1-2.8,0.1-4.1,0c-10.5-0.6-15.2-6.6-15.2-19.6 c0-10.3,2.9-16.2,9.2-18.5c2.5-1,5.2-1.5,7.9-1.4c2.8,0,5.6,0.5,8.2,1.4C289.2,88.7,292.1,94.5,292.1,104.8 M295.6,88.7 c0-0.1-0.1-0.2-0.2-0.3c0,0-0.1-0.1-0.1-0.1c-3.6-6.2-9.8-9.6-18.3-10c-2.9-0.1-4.4,0-4.4,0c-8.6,0.4-14.7,3.8-18.3,10 c0,0,0,0.1-0.1,0.1c-0.1,0.1-0.1,0.2-0.2,0.3c0,0,0,0.1,0,0.1c-2.2,4.1-3.4,9.5-3.4,15.9c0,17,8,26.1,23,26.4c0,0,0.3,0,1,0h1.4 c15-0.3,23-9.5,23-26.4c0-6.4-1.1-11.8-3.4-15.9C295.7,88.8,295.7,88.8,295.6,88.7"/>
</g>
<g fill="#888B8D">
<path d="M241.4,61.4h-5.7c-0.3,0-0.6,0.2-0.7,0.4l-1.7,2.1h5.8c0.3,0,0.6-0.2,0.7-0.4L241.4,61.4z"/>
<path d="M232.5,70.9c-0.2,0-0.4-0.2-0.4-0.4l0,0v-6.3l0,0v-9.4c0-0.2,0.2-0.4,0.4-0.4l0,0h7.9c0.3,0,0.5-0.2,0.7-0.4 l1.7-2.1h-13.1v21.3h13.2l-1.7-2.1c-0.2-0.2-0.4-0.4-0.7-0.4L232.5,70.9z"/>
<path d="M164.3,64.8c0-0.1,0-0.1,0-0.2c0-0.1,0.1-0.1,0.1-0.1c2.7-0.8,4.4-3.2,4.3-6c0-4-2.6-6.3-7.2-6.3h-7.7v21.2 h2.5V54.7c0-0.1,0.1-0.2,0.2-0.2c0,0,0,0,0,0h4.9c3.3,0,4.8,1.3,4.8,4c0,2.5-1.4,3.8-4.1,4h-2c-0.3,0-0.6,0.2-0.7,0.4l-1.8,2.1h3.8 c0,0,0,0,0.1,0l5.4,8.4h2.9L164.3,64.8z"/>
<path d="M215.2,62.3v-7.2c0-0.3,0.3-0.6,0.6-0.6l0,0h4c3.4,0,5.1,1.4,5.1,4.2s-1.7,4.3-5.1,4.3h-0.9 c-0.3,0-0.5,0.2-0.7,0.4l-1.7,2.1h3.4c4.7,0,7.4-2.4,7.4-6.6s-2.7-6.7-7.4-6.7h-7.3v21.2h2.5V62.3L215.2,62.3z"/>
<path d="M150.7,61.5h-5.6c-0.3,0-0.5,0.2-0.7,0.4l-1.7,2.1h5.5c0.1,0,0.2,0.1,0.2,0.2v6c0,0.1-0.1,0.2-0.1,0.2 c-1.5,0.4-3,0.7-4.5,0.7c-5.1,0-7.6-2.8-7.6-8.5s2.5-8.5,7.6-8.5c2,0,4,0.4,5.9,1.2l0.6,0.3v-2.6l-0.3-0.1c-2-0.8-4.2-1.2-6.4-1.2 c-6.4,0-9.9,3.9-9.9,11c0,7.2,3.4,10.9,9.9,10.9c2.4,0,4.8-0.5,7-1.5l0.3-0.1V61.5H150.7z"/>
<path d="M181.4,71.1c-0.6,0-1.2,0-1.8,0c-4.6-0.2-6.6-2.9-6.6-8.5c0-4.5,1.3-7,4-8c2.3-0.9,4.7-0.9,7,0 c2.8,1,4,3.6,4,8C188,68.2,186,70.8,181.4,71.1 M189.1,55.9c0,0,0-0.1,0-0.1l-0.1-0.1c-1.5-2.6-4-4-7.6-4.1c-1.2,0-1.9,0-1.9,0 c-3.6,0.2-6.1,1.6-7.6,4.1c0,0,0,0.1-0.1,0.1c0,0,0,0.1,0,0.1c-1,2.1-1.5,4.4-1.4,6.7c0,7.1,3.3,10.9,9.6,11c0.3,0,0.7,0,1,0 c6.3-0.1,9.6-3.9,9.6-11C190.7,60.2,190.2,57.9,189.1,55.9"/>
<path d="M210,52.5c0-0.2,0-0.3-0.1-0.5c-0.1-0.1-0.3-0.2-0.5-0.2h-1.9v13c0,4.2-2,6.4-6.1,6.4s-6-2.1-6-6.4v-13h-1.9 c-0.2,0-0.3,0-0.5,0.2c-0.1,0.1-0.2,0.3-0.2,0.5v12.2c0,5.6,3.1,8.8,8.6,8.8s8.6-3.2,8.6-8.8V52.5z"/>
</g>
</svg>
